<svg xmlns="http://www.w3.org/2000/svg" width="340" height="360" viewBox="0 0 90 95.3">
  <path d="m43.3 108.5 4.5 12.7 1.3-.3-5.7-27c3.2 3.6 6.7 7.8 10.2 12l-.6.6-6-5 4 19.5c2.4-6 6.6-11.2 4.9-18.4C53.3 92.4 51.5 82 49.2 71c7.3 12.7 8.3 26.3 10.2 39.7l1.5.3c.4-2 1.4-4.2 1.2-6.1-1-8.4-2.4-16.8-3.5-25.2-.6-5.2-.7-10.5-.3-15.8l6.8 23 1.5-.2 4.9-19 .9.1c-1 5.7-1.7 11.5-3.3 17.1-2 6.8 2.8 11.2 4.5 16.7h1.9L76 93l2.8 2.1c1.4-7.7 7-14.5 3-23l3 3.2 5-7.6c.6 0 1.2 0 1.7.2-9.3 10-2.5 20-.4 30.2l3.2-6 .7.1-3.7 18.3 2 .6c1-2.3 2.4-4.6 2.8-7 3.2-16 6.1-32 9.1-48l2.1.2V64c-.1 3-.5 6-.8 9l-1.4 8.4c-.8 5.4-1.7 10.7-2.2 16.2-.2 2.3.8 4.6 1.2 7l2.2.4 14.4-38 2 .5c-7.8 14.5-7.4 30.6-9.9 46.1l1.6.7c4-7.7 8.2-15.4 12.4-23h.8l-6.3 24 5.4-2.9a39.5 39.5 0 0 0-9.8 27l1.7-3.5c.3 1 .6 1.4.5 1.6-4.4 12-4.6 12.1-15.3 12.3l-1-7-.6 7.4H72l-1.5-3.8c-.2.2-.5.4-.5.6.3 2.7-.8 3.9-3.6 3.7-5.1-.4-10.2-.6-15.3-.7-3.1-.1-4.1-1.7-4.7-4.5-.8-4.2-2.1-8.2-3.3-12.3l3.6 2.6c-2.4-7.1-.2-14.4-8.3-19.2 7-.8 3-5.2 4.9-8.2m43.2-2.2c.6-.8 1.7-1.7 1.6-2.5-.7-5.5-1.7-11-2.6-16.5-3.4 6.8-3.6 13.3 1.2 19.2l-4.1-3.2-1.6.7 2.4 10.4 1-.1 2.1-8m-34.1 29.2 2 .1 1.4-17.4-2-.1-1.4 17.4" style="fill:#ea761f;fill-opacity:1;fill-rule:nonzero;stroke:none;stroke-width:.0352777" transform="translate(-38.4 -56)"/>
</svg>