<?xml version="1.0" encoding="UTF-8" standalone="no"?>
<svg
   width="500"
   height="500"
   viewBox="0 0 132.1875 132.2"
   version="1.1"
   id="svg1"
   xmlns="http://www.w3.org/2000/svg"
   xmlns:svg="http://www.w3.org/2000/svg">
  <defs
     id="defs1" />
  <path
     d="m 24.55515,22.374531 c -0.256984,-2.988611 -2.569844,-5.459509 -4.240244,-8.095135 0.685292,0.611842 1.413415,1.176619 2.055876,1.811993 0.642461,0.611841 1.284923,1.247215 1.798893,1.906121 0.556799,0.682439 0.942276,1.38841 1.541906,2.070849 -0.128496,-3.247467 -1.499075,-6.518466 0.5568,-9.742401 -1.584738,4.0711 1.113599,8.024538 0.985107,12.072105 0.299815,-1.647266 0.51397,-3.294531 0.985108,-4.941797 0.256985,-0.89423 0.770953,-1.811992 1.456244,-2.659157 0.642462,-0.753036 1.841724,-1.223684 3.85477,-1.200151 -3.897599,1.670798 -4.540061,3.97697 -5.011199,6.306675 -0.171322,0.894229 -0.342646,1.811992 -0.685292,2.706222 -0.256985,0.753036 -0.685292,1.506071 -1.113599,2.235575 -0.342646,0.588309 -2.098708,0.941295 -2.998153,0.611841 -0.214154,-0.0706 -0.385477,-0.329452 -0.342646,-0.470647 a 20.901408,11.483796 0 0 0 -2.82683,-6.589063 C 19.115645,16.679698 17.573738,15.0089 16.074661,13.338102 l 0.342647,-0.117662 3.083814,2.823884 c 0.985107,0.98836 2.013044,1.976719 2.82683,3.012143 0.856614,1.035424 1.456245,2.117913 2.227198,3.294531"
     style="fill:#e98219;fill-opacity:1;fill-rule:nonzero;stroke:none;stroke-width:0.0111998"
     id="path1" />
  <path
     d="m 74.919933,41.793285 c -0.103678,-2.194514 -1.036778,-4.008876 -1.710684,-5.944196 0.276474,0.449271 0.570228,0.863982 0.829423,1.330532 0.259194,0.449271 0.518389,0.915821 0.725745,1.399651 0.224635,0.501109 0.380152,1.019499 0.622066,1.520608 -0.05184,-2.38459 -0.604786,-4.78646 0.224636,-7.153771 -0.639347,2.989378 0.449271,5.892358 0.397432,8.864456 0.120957,-1.209575 0.207355,-2.41915 0.397432,-3.628725 0.103678,-0.656626 0.311033,-1.330532 0.587507,-1.952599 0.259195,-0.552948 0.743025,-0.898541 1.555168,-0.881262 -1.572447,1.226855 -1.831642,2.92026 -2.021718,4.630944 -0.06912,0.656626 -0.138237,1.330532 -0.276474,1.987158 -0.103678,0.552949 -0.276475,1.105897 -0.449271,1.641566 -0.138237,0.431991 -0.846702,0.691186 -1.209575,0.449271 -0.0864,-0.05184 -0.155517,-0.241915 -0.138237,-0.345593 a 8.4324644,8.4324644 0 0 0 -1.140456,-4.838299 c -0.587508,-1.261414 -1.209575,-2.488268 -1.814363,-3.715122 l 0.138238,-0.0864 1.244134,2.073557 c 0.397431,0.725745 0.812143,1.45149 1.140456,2.211794 0.345593,0.760304 0.587508,1.555167 0.898541,2.419149"
     style="fill:#e98219;fill-opacity:1;fill-rule:nonzero;stroke:none;stroke-width:0.00609583"
     id="path2" />
  <path
     d="m 111.7373,33.276133 c -0.24,-2.496567 -2.40011,-4.560658 -3.9602,-6.762356 0.64003,0.511109 1.32007,0.982901 1.9201,1.513667 0.60003,0.511109 1.20006,1.041875 1.68009,1.592299 0.52003,0.570083 0.88004,1.159823 1.44008,1.729905 -0.12,-2.712805 -1.40008,-5.445269 0.52002,-8.138417 -1.48008,3.400836 1.04006,6.703383 0.92005,10.084561 0.28001,-1.376062 0.48002,-2.752122 0.92005,-4.128183 0.24,-0.747005 0.72004,-1.513666 1.36007,-2.221355 0.60003,-0.629056 1.72009,-1.022217 3.60019,-1.002559 -3.64019,1.395719 -4.24022,3.322204 -4.68025,5.268348 -0.16,0.747004 -0.32002,1.513666 -0.64004,2.260671 -0.24,0.629056 -0.64002,1.258113 -1.04005,1.867511 -0.32002,0.49145 -1.96009,0.786321 -2.80014,0.511108 -0.20001,-0.05897 -0.36002,-0.275212 -0.32002,-0.39316 a 19.521018,9.5931105 0 0 0 -2.64014,-5.504243 c -1.36006,-1.435035 -2.80015,-2.830754 -4.20022,-4.226473 l 0.32002,-0.09829 2.88015,2.358961 c 0.92005,0.825637 1.8801,1.651273 2.64013,2.516226 0.80005,0.864952 1.36008,1.769221 2.08011,2.752121"
     style="fill:#e98219;fill-opacity:1;fill-rule:nonzero;stroke:none;stroke-width:0.00989258"
     id="path3" />
  <path
     d="m 56.522349,98.179923 c -0.145422,-3.078215 -1.454268,-5.623196 -2.399553,-8.337844 0.387811,0.630187 0.799854,1.211897 1.163423,1.866321 0.363569,0.630185 0.727139,1.284609 1.017992,1.963271 0.315095,0.702899 0.533233,1.430037 0.87257,2.132936 -0.07271,-3.344832 -0.848329,-6.713903 0.315086,-10.034498 -0.896802,4.19316 0.63019,8.265131 0.557475,12.434052 0.169663,-1.696654 0.290853,-3.393308 0.557474,-5.089962 0.145423,-0.921041 0.436285,-1.86632 0.824087,-2.738885 0.363569,-0.775613 1.042233,-1.260372 2.181415,-1.236134 -2.205648,1.720892 -2.569217,4.096208 -2.835838,6.495762 -0.09695,0.921041 -0.193905,1.86632 -0.387811,2.787361 -0.145422,0.775613 -0.387802,1.551226 -0.630181,2.302597 -0.193905,0.60595 -1.187656,0.96952 -1.696656,0.63019 -0.12119,-0.0727 -0.218138,-0.33933 -0.193906,-0.48476 A 11.828104,11.828104 0 0 0 54.268227,94.083716 C 53.44414,92.314347 52.571571,90.593455 51.723243,88.872563 l 0.193905,-0.121189 1.745131,2.90855 c 0.557474,1.017992 1.139181,2.035984 1.599699,3.102453 0.484759,1.066468 0.824095,2.181413 1.260371,3.393308"
     style="fill:#e98219;fill-opacity:1;fill-rule:nonzero;stroke:none;stroke-width:0.00855054"
     id="path4" />
  <path
     d="m 11.90841,118.604 c -0.17361,-3.67487 -1.73615,-6.71315 -2.8646599,-9.95398 0.46298,0.75234 0.95489,1.4468 1.3889299,2.22807 0.43404,0.75234 0.86808,1.53361 1.21531,2.34382 0.37617,0.83914 0.63659,1.70722 1.0417,2.54636 -0.0868,-3.99316 -1.01276,-8.01526 0.37616,-11.97949 -1.07063,5.00592 0.75234,9.86717 0.66553,14.84415 0.20255,-2.02551 0.34723,-4.05103 0.66553,-6.07655 0.17361,-1.09957 0.52085,-2.22807 0.98382,-3.26976 0.43404,-0.92595 1.24425,-1.50467 2.60424,-1.47574 -2.63317,2.05446 -3.06721,4.89018 -3.38551,7.75484 -0.11574,1.09957 -0.23149,2.22807 -0.46298,3.32764 -0.17361,0.92595 -0.46297,1.8519 -0.75233,2.74891 -0.23149,0.7234 -1.41786,1.15744 -2.02552,0.75234 -0.14468,-0.0868 -0.26042,-0.4051 -0.23149,-0.57872 a 14.120753,14.120753 0 0 0 -1.9097699,-8.10207 c -0.98382,-2.11233 -2.02552,-4.16678 -3.03828,-6.22123 l 0.23149,-0.14468 2.08339,3.47231 c 0.66553,1.21531 1.35999,2.43062 1.9097699,3.70381 0.57872,1.27318 0.98383,2.60423 1.50467,4.05103"
     style="fill:#e98219;fill-opacity:1;fill-rule:nonzero;stroke:none;stroke-width:0.0102079"
     id="path5" />
  <path
     d="m 98.907909,121.17172 c -0.114701,-2.42791 -1.147038,-4.43524 -1.892622,-6.57639 0.305882,0.49705 0.630877,0.95587 0.917638,1.47204 0.286762,0.49705 0.573522,1.01322 0.80293,1.54851 0.248528,0.55441 0.420582,1.12793 0.68823,1.68233 -0.05735,-2.6382 -0.66911,-5.29552 0.248522,-7.91461 -0.707344,3.30731 0.497053,6.51905 0.439703,9.80724 0.13382,-1.33822 0.22941,-2.67644 0.4397,-4.01466 0.1147,-0.72646 0.34412,-1.47204 0.64999,-2.16026 0.28676,-0.61176 0.82205,-0.99411 1.72057,-0.975 -1.73968,1.35734 -2.02644,3.23085 -2.23674,5.12347 -0.0765,0.72647 -0.15294,1.47204 -0.30588,2.19851 -0.1147,0.61175 -0.30587,1.22351 -0.497049,1.81615 -0.152941,0.47793 -0.936752,0.7647 -1.338221,0.49705 -0.09559,-0.0573 -0.172054,-0.26764 -0.152941,-0.38234 a 9.3293012,9.3293012 0 0 0 -1.261745,-5.35288 c -0.64999,-1.39558 -1.338221,-2.75291 -2.007331,-4.11024 l 0.152941,-0.0956 1.376454,2.29408 c 0.439703,0.80294 0.898519,1.60587 1.261747,2.44704 0.382349,0.84116 0.649995,1.72056 0.994104,2.67643"
     style="fill:#e98219;fill-opacity:1;fill-rule:nonzero;stroke:none;stroke-width:0.00674416"
     id="path6" />
</svg>
