<?xml version="1.0" encoding="UTF-8" standalone="no"?>
<svg
   width="600"
   height="600"
   viewBox="0 0 158.78049 158.7551"
   version="1.1"
   id="svg2"
   xmlns="http://www.w3.org/2000/svg"
   xmlns:svg="http://www.w3.org/2000/svg">
  <defs
     id="defs2" />
  <path
     d="m 127.80696,53.473283 c -0.13092,0.07361 -0.55157,-0.674476 -0.99338,-0.672204 -0.36466,0.0081 -0.602,0.461587 -0.69903,0.63923 l -1.16733,-2.075953 0.83211,0.51673 -3.01821,-5.367551 0.18702,-0.105165 c 0,0 0.97803,1.739312 1.16505,1.634148 0.18702,-0.105164 -0.70687,-1.694858 -0.95461,-2.047871 -0.18463,-0.2408 -0.50257,-0.06202 -0.64986,0.07003 l -2.09277,-3.721753 c -0.23136,-0.411449 -0.48626,0.273427 -0.48626,0.273427 l -0.33885,-0.646395 c -0.0327,-0.277009 -0.0443,-0.516615 -0.25,-0.794819 -0.14257,-0.16599 -0.51542,-0.128643 -0.734,-0.07958 l -2.18742,-3.890076 -0.33664,0.189296 2.18742,3.890075 c -0.14496,0.17997 -0.36239,0.449933 -0.29463,0.657989 0.13086,0.320266 0.34823,0.444195 0.54924,0.626556 l 1.7247,3.067173 c -0.14962,0.08413 -0.44886,0.252394 -0.35421,0.420714 l 1.46178,2.599616 0.76435,0.308675 0.0736,0.130915 c -0.18702,0.105164 -0.42782,0.289797 -0.23853,0.62644 0.2524,0.448855 1.39278,2.958426 1.6616,2.95496 0.26882,-0.0035 0.62525,0.411507 0.62525,0.411507 0,0 -0.25251,0.338914 -0.18475,0.54697 0.0304,0.229085 -0.18595,0.719951 1.32029,3.048413 0,0 0.52122,0.445387 0.29924,-0.168263 -0.24069,-0.603132 -1.52136,-2.836891 -1.20342,-3.015669 a 0.64368728,0.64368728 0 0 0 0.13091,-0.07362 l 1.22224,2.217386 -0.076,0.215047 2.94914,6.120248 c 0,0 -0.31441,0.05372 -0.18821,0.278145 0.13671,0.24313 -0.54709,0.603019 0.0419,0.862578 0.59955,0.27826 0.97587,0.509738 0.97587,0.509738 l 0.18702,-0.105164 0.47102,0.0059 0.84364,1.544105 c -0.0994,0.129723 -0.21277,0.365802 -0.16019,0.459313 0.0631,0.112214 0.41839,0.306286 0.64395,0.400991 l 1.89762,3.462251 c -0.0725,0.08998 -0.26888,0.39735 -0.19527,0.528266 0.0841,0.149619 0.5563,0.376435 0.75264,0.462954 l 0.70693,1.300976 c -0.0807,0.119206 -0.1777,0.296848 -0.1146,0.409061 0.0526,0.09351 0.29918,0.225622 0.53526,0.339029 l 0.86467,1.58151 c 0,0 1.64989,3.109237 1.4125,3.956582 0,0 0.64969,1.111617 1.94133,0.213004 1.42837,-0.655486 0.81609,-1.788139 0.81609,-1.788139 -0.83683,-0.218686 -2.63633,-3.243794 -2.63633,-3.243794 l -1.55177,-2.672096 -0.11551,-1.387379 -1.283,-2.281677 c 0,0 -0.27917,-1.196888 -0.5842,-1.34537 -0.33426,-0.156667 -0.44982,-1.15016 -0.44982,-1.15016 l -0.29924,0.168263 -4.81652,-8.565642 0.26302,-0.320212 c 0,0 -0.82028,-1.458777 -0.60051,-1.680815 0.22795,-0.251259 -0.11096,-0.503768 -0.24188,-0.430153 m -7.87727,-10.856931 0.41015,0.72939 0.24313,-0.136717 4.28019,7.611825 -0.18703,0.105165 -4.74643,-8.309665 m 14.89251,25.915571 -3.44006,-5.942665 0.13677,-0.150755 -1.3332,-2.721151 -0.6311,-0.334369 -3.07432,-5.336003 c 0.11221,-0.0631 0.24313,-0.136714 0.37172,-0.258247 l 3.3337,5.928621 5.07478,8.937357 -0.41958,-0.133303"
     style="fill:#f5d25e;fill-opacity:1;fill-rule:nonzero;stroke:none;stroke-width:0.00717949"
     id="path3" />
  <path
     d="m 99.0582,124.67847 c -0.130021,-0.0752 0.299493,-0.81821 0.07251,-1.19725 -0.192622,-0.30974 -0.703853,-0.28295 -0.906145,-0.27598 l 1.191913,-2.06193 -0.02085,0.97928 3.081804,-5.33129 0.18576,0.10737 c 0,0 -0.99863,1.72756 -0.81287,1.83494 0.18575,0.10738 1.09849,-1.47157 1.27609,-1.86457 0.11319,-0.28153 -0.20262,-0.46407 -0.39124,-0.52359 l 2.13686,-3.69661 c 0.23624,-0.40867 -0.48297,-0.27919 -0.48297,-0.27919 l 0.38367,-0.62084 c 0.22173,-0.16924 0.42202,-0.30126 0.55665,-0.61998 0.0702,-0.20724 -0.15182,-0.50907 -0.30535,-0.6722 l 2.2335,-3.8638 -0.33437,-0.19328 -2.2335,3.8638 c -0.22871,-0.0331 -0.57178,-0.0827 -0.71631,0.0816 -0.20895,0.27574 -0.20489,0.52593 -0.25944,0.79179 l -1.76102,3.04646 c -0.14858,-0.0859 -0.44583,-0.25771 -0.54247,-0.0905 l -1.492582,2.58205 0.123682,0.815 -0.07517,0.13002 c -0.185763,-0.10738 -0.467298,-0.22056 -0.660584,0.1138 -0.257714,0.44583 -1.83651,2.70543 -1.696602,2.935 0.140364,0.2293 -0.03566,0.74767 -0.03566,0.74767 0,0 -0.420268,-0.0447 -0.564803,0.11961 -0.181654,0.14284 -0.714275,0.20668 -1.950866,2.68888 0,0 -0.117805,0.6754 0.297215,0.17181 0.396437,-0.51433 1.666425,-2.75418 1.982218,-2.57163 a 0.64368728,0.64368728 0 0 0 0.130015,0.0752 l -1.285662,2.18123 -0.223765,0.0441 -3.764732,5.65524 c 0,0 -0.206355,-0.24322 -0.335229,-0.0203 -0.139596,0.24148 -0.797594,-0.16366 -0.720954,0.4754 0.06592,0.65768 0.05839,1.09943 0.05839,1.09943 l 0.185754,0.10738 0.234748,0.4084 -0.899091,1.51248 c -0.16227,-0.0195 -0.423176,0.003 -0.476866,0.0961 -0.06442,0.11146 -0.05047,0.51605 -0.01709,0.7584 l -2.012943,3.3965 c -0.114379,-0.0165 -0.478898,-0.029 -0.554061,0.10102 -0.08592,0.14858 -0.0406,0.67047 -0.01505,0.8835 l -0.759504,1.27101 c -0.143683,-0.009 -0.345969,-0.002 -0.410393,0.10973 -0.05367,0.0929 -0.04177,0.37238 -0.01913,0.63331 l -0.920573,1.54963 c 0,0 -1.835326,3.0035 -2.685437,3.23081 0,0 -0.625703,1.1253 0.805506,1.77913 1.291614,0.89533 1.954477,-0.20849 1.954477,-0.20849 -0.238046,-0.83153 1.448685,-3.92093 1.448685,-3.92093 l 1.509125,-2.69642 1.135093,-0.80605 1.310031,-2.26626 c 0,0 0.887805,-0.84987 0.860216,-1.188 -0.03543,-0.36745 0.760672,-0.97292 0.760672,-0.97292 l -0.297215,-0.17182 4.918006,-8.50777 0.409537,0.0632 c 0,0 0.837558,-1.44892 1.140576,-1.37289 0.33233,0.0682 0.377009,-0.35208 0.246971,-0.42724 m 5.330822,-12.30881 -0.41877,0.72447 0.24149,0.1396 -4.370359,7.56041 -0.185768,-0.10739 4.733427,-8.31708 m -14.716562,26.01588 3.361859,-5.98724 0.199402,0.0409 1.662662,-2.5333 -0.0337,-0.71342 3.026075,-5.3635 c 0.111455,0.0644 0.241484,0.13959 0.411574,0.18835 l -3.403957,5.88857 -5.106342,8.91935 -0.099,-0.42897"
     style="fill:#f5d25e;fill-opacity:1;fill-rule:nonzero;stroke:none;stroke-width:0.00717949"
     id="path5" />
</svg>
