<?xml version="1.0" encoding="UTF-8" standalone="no"?>
<svg
   width="600"
   height="600"
   viewBox="0 0 158.78049 158.7551"
   version="1.1"
   id="svg2"
   xmlns="http://www.w3.org/2000/svg"
   xmlns:svg="http://www.w3.org/2000/svg">
  <defs
     id="defs2" />
  <path
     d="m 68.168425,18.450055 c -0.01748,-0.127224 0.70953,-0.227139 0.846324,-0.579274 0.107958,-0.292604 -0.178301,-0.623649 -0.289161,-0.756563 l 2.017468,-0.277258 -0.672064,0.499771 5.216331,-0.716875 0.02498,0.181755 c 0,0 -1.690311,0.232297 -1.665332,0.414051 0.02498,0.181752 1.569885,-0.03056 1.928397,-0.116869 0.249459,-0.07132 0.206997,-0.380301 0.148168,-0.538883 l 3.616899,-0.497065 c 0.399857,-0.05495 -0.06494,-0.47256 -0.06494,-0.47256 l 0.62046,-0.06675 c 0.230594,0.0609 0.424837,0.126801 0.710647,0.05048 0.176758,-0.06133 0.264021,-0.36962 0.293564,-0.558868 l 3.780481,-0.519547 -0.04496,-0.327156 -3.780479,0.519546 c -0.09768,-0.171764 -0.244199,-0.429406 -0.430948,-0.440779 -0.2958,0.0036 -0.462568,0.13764 -0.670683,0.24032 l -2.98076,0.409642 c -0.01998,-0.145402 -0.05995,-0.436209 -0.223526,-0.413729 l -2.526377,0.347198 -0.485315,0.511143 -0.127225,0.01749 c -0.02498,-0.181753 -0.0963,-0.431214 -0.423456,-0.386253 -0.436209,0.05995 -2.790132,0.179741 -2.871709,0.394655 -0.08155,0.214927 -0.523471,0.36824 -0.523471,0.36824 0,0 -0.190364,-0.307175 -0.377114,-0.318546 -0.191744,-0.04772 -0.514332,-0.373764 -2.838972,0.09386 0,0 -0.517784,0.274863 0.03997,0.290807 0.555252,-0.0022 2.7338,-0.320146 2.776262,-0.01117 a 0.5503862,0.5503862 0 0 0 0.01749,0.12723 l -2.147191,0.276564 -0.147211,-0.127916 -5.793375,0.425803 c 0,0 0.0559,-0.266945 -0.162197,-0.23697 -0.23628,0.03247 -0.308026,-0.62434 -0.699274,-0.237236 -0.409423,0.389603 -0.711602,0.616317 -0.711602,0.616317 l 0.02498,0.181754 -0.15246,0.372811 -1.492879,0.186643 c -0.07201,-0.119738 -0.224217,-0.284003 -0.315093,-0.271514 -0.109054,0.01499 -0.374881,0.236705 -0.520974,0.386414 l -3.349264,0.42325 c -0.04883,-0.08588 -0.23171,-0.338528 -0.358937,-0.321044 -0.145404,0.01998 -0.473942,0.324393 -0.604358,0.453428 l -1.256599,0.154171 c -0.06952,-0.101555 -0.180373,-0.234472 -0.289424,-0.219486 -0.09088,0.01249 -0.273322,0.167193 -0.43759,0.319399 l -1.529231,0.191638 c 0,0 -2.990752,0.336945 -3.590275,-0.117709 0,0 -1.088024,0.168048 -0.778456,1.477363 0.07329,1.34179 1.166309,1.210095 1.166309,1.210095 0.436472,-0.597024 3.407243,-1.079369 3.407243,-1.079369 l 2.612258,-0.396034 1.13979,0.343364 2.217395,-0.304733 c 0,0 1.039611,0.153426 1.253411,-0.04262 0.229476,-0.216724 1.055977,0.003 1.055977,0.003 l -0.03997,-0.290805 8.324321,-1.144001 0.172189,0.309671 c 0,0 1.417678,-0.194829 1.525349,0.04964 0.128345,0.260142 0.435518,0.06978 0.418034,-0.05745 m 11.107064,-2.859771 -0.70884,0.09741 0.03247,0.236285 -7.397376,1.016612 -0.02498,-0.181754 8.098723,-1.168554 m -25.285837,3.715738 5.806129,-0.872 0.07701,0.156085 2.58271,-0.20679 0.463951,-0.397096 5.208838,-0.7714 c 0.01499,0.109052 0.03248,0.23628 0.0888,0.376687 l -5.761593,0.791808 -8.701007,1.232804 0.23766,-0.291922"
     style="fill:#f8e3ba;fill-opacity:1;fill-rule:nonzero;stroke:none;stroke-width:0.00613884"
     id="path2" />
  <path
     d="m 127.80696,53.473283 c -0.13092,0.07361 -0.55157,-0.674476 -0.99338,-0.672204 -0.36466,0.0081 -0.602,0.461587 -0.69903,0.63923 l -1.16733,-2.075953 0.83211,0.51673 -3.01821,-5.367551 0.18702,-0.105165 c 0,0 0.97803,1.739312 1.16505,1.634148 0.18702,-0.105164 -0.70687,-1.694858 -0.95461,-2.047871 -0.18463,-0.2408 -0.50257,-0.06202 -0.64986,0.07003 l -2.09277,-3.721753 c -0.23136,-0.411449 -0.48626,0.273427 -0.48626,0.273427 l -0.33885,-0.646395 c -0.0327,-0.277009 -0.0443,-0.516615 -0.25,-0.794819 -0.14257,-0.16599 -0.51542,-0.128643 -0.734,-0.07958 l -2.18742,-3.890076 -0.33664,0.189296 2.18742,3.890075 c -0.14496,0.17997 -0.36239,0.449933 -0.29463,0.657989 0.13086,0.320266 0.34823,0.444195 0.54924,0.626556 l 1.7247,3.067173 c -0.14962,0.08413 -0.44886,0.252394 -0.35421,0.420714 l 1.46178,2.599616 0.76435,0.308675 0.0736,0.130915 c -0.18702,0.105164 -0.42782,0.289797 -0.23853,0.62644 0.2524,0.448855 1.39278,2.958426 1.6616,2.95496 0.26882,-0.0035 0.62525,0.411507 0.62525,0.411507 0,0 -0.25251,0.338914 -0.18475,0.54697 0.0304,0.229085 -0.18595,0.719951 1.32029,3.048413 0,0 0.52122,0.445387 0.29924,-0.168263 -0.24069,-0.603132 -1.52136,-2.836891 -1.20342,-3.015669 a 0.64368728,0.64368728 0 0 0 0.13091,-0.07362 l 1.22224,2.217386 -0.076,0.215047 2.94914,6.120248 c 0,0 -0.31441,0.05372 -0.18821,0.278145 0.13671,0.24313 -0.54709,0.603019 0.0419,0.862578 0.59955,0.27826 0.97587,0.509738 0.97587,0.509738 l 0.18702,-0.105164 0.47102,0.0059 0.84364,1.544105 c -0.0994,0.129723 -0.21277,0.365802 -0.16019,0.459313 0.0631,0.112214 0.41839,0.306286 0.64395,0.400991 l 1.89762,3.462251 c -0.0725,0.08998 -0.26888,0.39735 -0.19527,0.528266 0.0841,0.149619 0.5563,0.376435 0.75264,0.462954 l 0.70693,1.300976 c -0.0807,0.119206 -0.1777,0.296848 -0.1146,0.409061 0.0526,0.09351 0.29918,0.225622 0.53526,0.339029 l 0.86467,1.58151 c 0,0 1.64989,3.109237 1.4125,3.956582 0,0 0.64969,1.111617 1.94133,0.213004 1.42837,-0.655486 0.81609,-1.788139 0.81609,-1.788139 -0.83683,-0.218686 -2.63633,-3.243794 -2.63633,-3.243794 l -1.55177,-2.672096 -0.11551,-1.387379 -1.283,-2.281677 c 0,0 -0.27917,-1.196888 -0.5842,-1.34537 -0.33426,-0.156667 -0.44982,-1.15016 -0.44982,-1.15016 l -0.29924,0.168263 -4.81652,-8.565642 0.26302,-0.320212 c 0,0 -0.82028,-1.458777 -0.60051,-1.680815 0.22795,-0.251259 -0.11096,-0.503768 -0.24188,-0.430153 m -7.87727,-10.856931 0.41015,0.72939 0.24313,-0.136717 4.28019,7.611825 -0.18703,0.105165 -4.74643,-8.309665 m 14.89251,25.915571 -3.44006,-5.942665 0.13677,-0.150755 -1.3332,-2.721151 -0.6311,-0.334369 -3.07432,-5.336003 c 0.11221,-0.0631 0.24313,-0.136714 0.37172,-0.258247 l 3.3337,5.928621 5.07478,8.937357 -0.41958,-0.133303"
     style="fill:#f5d25e;fill-opacity:1;fill-rule:nonzero;stroke:none;stroke-width:0.00717949"
     id="path3" />
  <path
     d="m 33.579109,82.875837 c -0.229487,0.05637 -0.551656,-1.254943 -1.222304,-1.437797 -0.556164,-0.141491 -1.107143,0.445822 -1.329127,0.674176 l -0.894055,-3.638932 1.043412,1.134129 -2.311626,-9.408754 0.327829,-0.08054 c 0,0 0.749068,3.048832 1.076895,2.968288 0.327827,-0.08054 -0.356792,-2.867111 -0.583458,-3.506668 -0.178321,-0.442854 -0.735638,-0.305928 -1.01458,-0.167876 l -1.602839,-6.523845 c -0.177197,-0.721226 -0.852364,0.209415 -0.852364,0.209415 l -0.241058,-1.122679 c 0.06724,-0.433676 0.150695,-0.80176 -0.0438,-1.310194 -0.146117,-0.311724 -0.727021,-0.412333 -1.079031,-0.430133 l -1.675333,-6.818899 -0.590094,0.144984 1.675333,6.818896 c -0.295617,0.21167 -0.73903,0.529193 -0.724052,0.873134 0.06331,0.540635 0.34054,0.820143 0.568332,1.181323 l 1.32094,5.376437 c -0.262266,0.06443 -0.786802,0.193305 -0.714308,0.488354 l 1.119564,4.556853 1.028433,0.790191 0.05636,0.229474 c -0.327827,0.08054 -0.770683,0.25887 -0.625711,0.848968 0.193315,0.786799 0.863677,5.071639 1.272611,5.179739 0.408951,0.108041 0.774226,0.887406 0.774226,0.887406 0,0 -0.525661,0.407245 -0.510682,0.751186 -0.05052,0.360063 -0.585444,1.012884 0.715851,5.177473 0,0 0.602254,0.894896 0.524537,-0.128872 -0.110512,-1.015712 -1.109824,-4.941635 -0.552511,-5.078559 a 1.0127426,1.0127426 0 0 0 0.229476,-0.05639 l 0.917649,3.876469 -0.205878,0.293918 1.889539,10.520559 c 0,0 -0.49923,-0.05115 -0.402572,0.342247 0.104706,0.42618 -1.083547,0.683356 -0.300212,1.325152 0.791456,0.674595 1.26427,1.18415 1.26427,1.18415 l 0.327827,-0.08054 0.711478,0.207559 0.627675,2.696271 c -0.20537,0.15472 -0.476761,0.46476 -0.436493,0.62867 0.04833,0.1967 0.505039,0.64069 0.807005,0.87936 l 1.416458,6.0482 c -0.147831,0.10583 -0.575114,0.48892 -0.518741,0.7184 0.06438,0.26225 0.684501,0.80518 0.945628,1.01911 l 0.52297,2.2701 c -0.172586,0.14664 -0.394527,0.37502 -0.346197,0.57172 0.04031,0.16391 0.358356,0.46815 0.668381,0.7396 l 0.64378,2.76184 c 0,0 1.189811,5.40864 0.472675,6.59295 0,0 0.516055,1.95892 2.852829,1.14146 2.4415,-0.39126 1.991024,-2.36631 1.991024,-2.36631 -1.176245,-0.68434 -2.628305,-6.02856 -2.628305,-6.02856 l -1.225408,-4.70467 0.409927,-2.15168 -0.982638,-3.99954 c 0,0 0.08153,-1.93195 -0.31822,-2.28564 -0.440606,-0.37842 -0.196843,-1.93307 -0.196843,-1.93307 l -0.524536,0.12887 -3.688938,-15.014673 0.533705,-0.374466 c 0,0 -0.628246,-2.557083 -0.201495,-2.800975 0.451473,-0.284735 0.04423,-0.810393 -0.185255,-0.754014 m -7.362217,-19.778409 0.314138,1.278548 0.426183,-0.104706 3.278174,13.342736 -0.327842,0.08054 -3.690637,-14.597113 M 37.8709,108.69241 35.162348,98.234025 35.43323,98.063184 34.559813,93.376328 33.744194,92.603379 31.334215,83.218784 c 0.196693,-0.04833 0.426182,-0.104706 0.672342,-0.234705 l 2.553256,10.392252 3.923664,15.687019 -0.579784,-0.37899"
     style="fill:#f8e3ba;fill-opacity:1;fill-rule:nonzero;stroke:none;stroke-width:0.0112958"
     id="path4" />
  <path
     d="m 99.0582,124.67847 c -0.130021,-0.0752 0.299493,-0.81821 0.07251,-1.19725 -0.192622,-0.30974 -0.703853,-0.28295 -0.906145,-0.27598 l 1.191913,-2.06193 -0.02085,0.97928 3.081804,-5.33129 0.18576,0.10737 c 0,0 -0.99863,1.72756 -0.81287,1.83494 0.18575,0.10738 1.09849,-1.47157 1.27609,-1.86457 0.11319,-0.28153 -0.20262,-0.46407 -0.39124,-0.52359 l 2.13686,-3.69661 c 0.23624,-0.40867 -0.48297,-0.27919 -0.48297,-0.27919 l 0.38367,-0.62084 c 0.22173,-0.16924 0.42202,-0.30126 0.55665,-0.61998 0.0702,-0.20724 -0.15182,-0.50907 -0.30535,-0.6722 l 2.2335,-3.8638 -0.33437,-0.19328 -2.2335,3.8638 c -0.22871,-0.0331 -0.57178,-0.0827 -0.71631,0.0816 -0.20895,0.27574 -0.20489,0.52593 -0.25944,0.79179 l -1.76102,3.04646 c -0.14858,-0.0859 -0.44583,-0.25771 -0.54247,-0.0905 l -1.492582,2.58205 0.123682,0.815 -0.07517,0.13002 c -0.185763,-0.10738 -0.467298,-0.22056 -0.660584,0.1138 -0.257714,0.44583 -1.83651,2.70543 -1.696602,2.935 0.140364,0.2293 -0.03566,0.74767 -0.03566,0.74767 0,0 -0.420268,-0.0447 -0.564803,0.11961 -0.181654,0.14284 -0.714275,0.20668 -1.950866,2.68888 0,0 -0.117805,0.6754 0.297215,0.17181 0.396437,-0.51433 1.666425,-2.75418 1.982218,-2.57163 a 0.64368728,0.64368728 0 0 0 0.130015,0.0752 l -1.285662,2.18123 -0.223765,0.0441 -3.764732,5.65524 c 0,0 -0.206355,-0.24322 -0.335229,-0.0203 -0.139596,0.24148 -0.797594,-0.16366 -0.720954,0.4754 0.06592,0.65768 0.05839,1.09943 0.05839,1.09943 l 0.185754,0.10738 0.234748,0.4084 -0.899091,1.51248 c -0.16227,-0.0195 -0.423176,0.003 -0.476866,0.0961 -0.06442,0.11146 -0.05047,0.51605 -0.01709,0.7584 l -2.012943,3.3965 c -0.114379,-0.0165 -0.478898,-0.029 -0.554061,0.10102 -0.08592,0.14858 -0.0406,0.67047 -0.01505,0.8835 l -0.759504,1.27101 c -0.143683,-0.009 -0.345969,-0.002 -0.410393,0.10973 -0.05367,0.0929 -0.04177,0.37238 -0.01913,0.63331 l -0.920573,1.54963 c 0,0 -1.835326,3.0035 -2.685437,3.23081 0,0 -0.625703,1.1253 0.805506,1.77913 1.291614,0.89533 1.954477,-0.20849 1.954477,-0.20849 -0.238046,-0.83153 1.448685,-3.92093 1.448685,-3.92093 l 1.509125,-2.69642 1.135093,-0.80605 1.310031,-2.26626 c 0,0 0.887805,-0.84987 0.860216,-1.188 -0.03543,-0.36745 0.760672,-0.97292 0.760672,-0.97292 l -0.297215,-0.17182 4.918006,-8.50777 0.409537,0.0632 c 0,0 0.837558,-1.44892 1.140576,-1.37289 0.33233,0.0682 0.377009,-0.35208 0.246971,-0.42724 m 5.330822,-12.30881 -0.41877,0.72447 0.24149,0.1396 -4.370359,7.56041 -0.185768,-0.10739 4.733427,-8.31708 m -14.716562,26.01588 3.361859,-5.98724 0.199402,0.0409 1.662662,-2.5333 -0.0337,-0.71342 3.026075,-5.3635 c 0.111455,0.0644 0.241484,0.13959 0.411574,0.18835 l -3.403957,5.88857 -5.106342,8.91935 -0.099,-0.42897"
     style="fill:#f5d25e;fill-opacity:1;fill-rule:nonzero;stroke:none;stroke-width:0.00717949"
     id="path5" />
  <path
     d="m 83.944875,66.489135 c 0.0528,-0.08428 0.53444,0.217437 0.790625,0.07613 0.209483,-0.120253 0.203802,-0.459149 0.203942,-0.593192 l 1.336548,0.837281 -0.647586,-0.03682 3.455758,2.164857 -0.07543,0.120409 c 0,0 -1.119811,-0.701506 -1.195242,-0.581095 -0.07543,0.120408 0.948052,0.761571 1.203958,0.888349 0.18366,0.08152 0.311892,-0.123175 0.355699,-0.246628 l 2.396152,1.501068 C 92.034201,70.78544 91.96542,70.30643 91.96542,70.30643 l 0.401848,0.268508 c 0.10678,0.150719 0.189471,0.286357 0.397214,0.382962 0.135494,0.05136 0.340472,-0.0885 0.452024,-0.186289 l 2.504523,1.568958 0.135776,-0.216735 -2.504523,-1.568958 c 0.02727,-0.150581 0.06817,-0.376456 -0.03716,-0.475968 -0.177557,-0.144784 -0.343235,-0.147958 -0.517902,-0.190309 l -1.974719,-1.237061 c 0.06035,-0.09633 0.181033,-0.288984 0.07267,-0.356872 l -1.673695,-1.048484 -0.542263,0.06269 -0.08429,-0.0528 c 0.07543,-0.120408 0.156953,-0.304069 -0.05979,-0.439845 -0.288983,-0.181034 -1.747254,-1.278995 -1.902473,-1.191804 -0.155212,0.08721 -0.49396,-0.04118 -0.49396,-0.04118 0,0 0.03945,-0.277083 -0.06588,-0.376595 -0.09024,-0.123593 -0.11999,-0.47756 -1.733619,-1.354287 0,0 -0.444202,-0.09384 -0.120689,0.192656 0.331052,0.274461 1.783515,1.167583 1.655285,1.372278 a 0.42625637,0.42625637 0 0 0 -0.05281,0.08429 l -1.41329,-0.902123 -0.02395,-0.149129 -3.654086,-2.624427 c 0,0 0.165806,-0.130861 0.02132,-0.221374 -0.156534,-0.09806 0.127059,-0.523993 -0.2977,-0.488288 -0.436799,0.02816 -0.728967,0.01279 -0.728967,0.01279 l -0.07543,0.120409 -0.275764,0.145812 -0.979816,-0.630575 c 0.01668,-0.106918 0.0078,-0.280127 -0.05238,-0.317841 -0.07225,-0.04526 -0.340332,-0.04554 -0.501502,-0.02914 l -2.200454,-1.412004 c 0.01364,-0.07529 0.03045,-0.316248 -0.05384,-0.36905 -0.09633,-0.06035 -0.442749,-0.04263 -0.584336,-0.03073 L 74.17751,58.073401 c 0.0091,-0.09487 0.0093,-0.228918 -0.06297,-0.274176 -0.06021,-0.03771 -0.245457,-0.0364 -0.418668,-0.02755 L 72.69199,57.126021 c 0,0 -1.944548,-1.285224 -2.074986,-1.853163 0,0 -0.730002,-0.44054 -1.196358,0.49125 -0.62289,0.833731 0.09203,1.298357 0.09203,1.298357 0.555895,-0.137983 2.560787,1.050916 2.560787,1.050916 l 1.748985,1.062119 0.506756,0.770148 1.468997,0.920254 c 0,0 0.541565,0.607523 0.765985,0.597215 0.244004,-0.01481 0.626007,0.526261 0.626007,0.526261 l 0.120689,-0.192656 5.514765,3.454722 -0.05149,0.269539 c 0,0 0.939195,0.588359 0.881755,0.787105 -0.05294,0.218331 0.22414,0.257779 0.276944,0.17349 m 8.020543,3.817292 -0.469598,-0.29418 -0.09806,0.156538 -4.900674,-3.070025 0.07543,-0.12041 5.392903,3.328082 m -16.87114,-10.35096 3.883282,2.365618 -0.03177,0.130999 1.637432,1.159898 0.472923,-0.0056 3.478388,2.128736 c -0.04525,0.07225 -0.09806,0.156534 -0.134324,0.267945 l -3.816988,-2.39115 -5.78271,-3.589045 0.286217,-0.05543"
     style="fill:#f3ad42;fill-opacity:1;fill-rule:nonzero;stroke:none;stroke-width:0.00475433"
     id="path6" />
  <path
     d="m 130.55105,138.08067 c -0.18087,-3.82839 -1.80869,-6.99359 -2.98433,-10.36981 0.48231,0.78376 0.99478,1.50724 1.44695,2.32115 0.45217,0.78376 0.90434,1.59767 1.26608,2.44173 0.39188,0.8742 0.66318,1.77854 1.08521,2.65274 -0.0904,-4.15998 -1.05507,-8.35011 0.39189,-12.47995 -1.11536,5.21505 0.78376,10.27938 0.69332,15.46429 0.21102,-2.11014 0.36174,-4.22028 0.69334,-6.33041 0.18086,-1.14551 0.5426,-2.32115 1.02492,-3.40637 0.45217,-0.96463 1.29623,-1.56753 2.71303,-1.53738 -2.74318,2.14028 -3.19535,5.09447 -3.52694,8.07881 -0.12058,1.1455 -0.24116,2.32115 -0.48232,3.46665 -0.18087,0.96463 -0.48231,1.92927 -0.78376,2.86376 -0.24116,0.75362 -1.4771,1.20579 -2.11014,0.78376 -0.15072,-0.0904 -0.2713,-0.42203 -0.24116,-0.60289 a 14.710669,14.710669 0 0 0 -1.98955,-8.44055 c -1.02493,-2.20057 -2.11014,-4.34085 -3.16521,-6.48114 l 0.24116,-0.15072 2.17042,3.61738 c 0.69334,1.26608 1.41681,2.53216 1.98956,3.85854 0.6029,1.32637 1.02493,2.71303 1.56753,4.22027"
     style="fill:#f8e3ba;fill-opacity:1;fill-rule:nonzero;stroke:none;stroke-width:0.0106344"
     id="path1" />
  <path
     d="m 56.833886,96.342933 c 2.632865,-2.785194 3.784493,-6.152989 5.401732,-9.341332 -0.230218,0.891012 -0.39609,1.761952 -0.668932,2.652156 -0.25112,0.869297 -0.523961,1.759502 -0.881237,2.605461 -0.358089,0.888576 -0.821512,1.711178 -1.158694,2.621477 2.934509,-2.94996 5.284459,-6.550726 9.263368,-8.372142 -4.53083,2.812891 -6.862612,7.693146 -10.660974,11.223573 1.666658,-1.311286 3.2915,-2.666017 5.04177,-3.89042 0.950743,-0.664072 2.048629,-1.218717 3.164988,-1.623782 1.008567,-0.343163 2.028278,-0.153125 2.989067,0.888564 -3.444355,-0.492193 -5.886369,1.230673 -8.266486,3.061323 -0.908933,0.707496 -1.839588,1.4359 -2.83214,2.05652 -0.820429,0.53863 -1.724474,0.990396 -2.606806,1.421248 -0.710209,0.348862 -1.89308,-0.228045 -2.028009,-0.976806 -0.03939,-0.171282 0.115927,-0.488134 0.267135,-0.591839 a 14.710669,14.710669 0 0 0 4.701581,-7.28672 c 0.874715,-2.264478 1.66419,-4.530578 2.474573,-6.77497 l 0.275829,0.06923 -1.101139,4.072304 c -0.431379,1.37753 -0.841863,2.77677 -1.400312,4.109234 -0.537534,1.35418 -1.243935,2.619855 -1.953599,4.056018"
     style="fill:#f5d25e;fill-opacity:1;fill-rule:nonzero;stroke:none;stroke-width:0.0106344"
     id="path7" />
  <path
     d="m 18.666065,31.276242 c -1.135646,-3.660545 -3.505559,-6.316068 -5.490702,-9.289315 0.663531,0.637675 1.341132,1.209431 1.983052,1.883854 0.634355,0.645237 1.276275,1.31966 1.838223,2.045957 0.598685,0.747912 1.08821,1.555253 1.716081,2.295599 -1.131268,-4.004227 -3.116404,-7.818282 -2.751926,-12.179065 0.2288,5.328079 3.337835,9.753911 4.551208,14.795657 -0.325175,-2.095586 -0.708721,-4.176043 -0.91717,-6.301874 -0.11234,-1.154245 -0.05714,-2.383041 0.13746,-3.554563 0.195675,-1.047225 0.861465,-1.842618 2.240508,-2.168915 -2.118423,2.760094 -1.814909,5.733236 -1.387106,8.70531 0.170689,1.139111 0.348942,2.307408 0.402908,3.476774 0.06695,0.979154 0.01718,1.988567 -0.04016,2.9688 -0.04436,0.790021 -1.127312,1.53783 -1.845991,1.288133 -0.168581,-0.04969 -0.368511,-0.340459 -0.384714,-0.523096 A 14.710669,14.710669 0 0 0 14.674056,27.048137 C 13.129778,25.175119 11.542275,23.375588 9.9839454,21.568484 l 0.1956296,-0.206407 3.00861,2.957097 c 0.988827,1.051618 2.00682,2.095676 2.894044,3.235922 0.916407,1.132671 1.672857,2.369085 2.576274,3.69197"
     style="fill:#f3ad42;fill-opacity:1;fill-rule:nonzero;stroke:none;stroke-width:0.0106344"
     id="path8" />
  <path
     d="m 133.93666,27.101164 c -0.11825,-2.502937 -1.18249,-4.572292 -1.95111,-6.779608 0.31533,0.512409 0.65037,0.985409 0.94599,1.517529 0.29562,0.512409 0.59125,1.04453 0.82775,1.596362 0.2562,0.571538 0.43357,1.16278 0.70949,1.734317 -0.0591,-2.719725 -0.68979,-5.459162 0.25621,-8.159182 -0.72921,3.409513 0.51241,6.720487 0.45328,10.110294 0.13796,-1.379574 0.2365,-2.759149 0.45329,-4.138716 0.11825,-0.748915 0.35475,-1.517529 0.67008,-2.227028 0.29562,-0.630659 0.84745,-1.024825 1.77373,-1.005113 -1.79344,1.399279 -2.08906,3.330679 -2.30585,5.281791 -0.0788,0.748908 -0.15767,1.517529 -0.31533,2.266437 -0.11825,0.630659 -0.31533,1.261323 -0.51241,1.872277 -0.15767,0.492704 -0.96571,0.788325 -1.37958,0.512409 -0.0985,-0.0591 -0.17737,-0.275916 -0.15766,-0.39416 a 9.6175888,9.6175888 0 0 0 -1.30074,-5.518288 c -0.67008,-1.438696 -1.37957,-2.837975 -2.06936,-4.237261 l 0.15767,-0.09854 1.41898,2.364983 c 0.45329,0.827742 0.92629,1.655483 1.30074,2.522648 0.39417,0.867159 0.67008,1.773734 1.02483,2.759142"
     style="fill:#e98219;fill-opacity:1;fill-rule:nonzero;stroke:none;stroke-width:0.00695259"
     id="path9" />
</svg>
