<?xml version="1.0" encoding="UTF-8" standalone="no"?>
<svg
   width="600"
   height="600"
   viewBox="0 0 158.78049 158.7551"
   version="1.1"
   id="svg2"
   xmlns="http://www.w3.org/2000/svg"
   xmlns:svg="http://www.w3.org/2000/svg">
  <defs
     id="defs2" />
  <path
     d="m 83.944875,66.489135 c 0.0528,-0.08428 0.53444,0.217437 0.790625,0.07613 0.209483,-0.120253 0.203802,-0.459149 0.203942,-0.593192 l 1.336548,0.837281 -0.647586,-0.03682 3.455758,2.164857 -0.07543,0.120409 c 0,0 -1.119811,-0.701506 -1.195242,-0.581095 -0.07543,0.120408 0.948052,0.761571 1.203958,0.888349 0.18366,0.08152 0.311892,-0.123175 0.355699,-0.246628 l 2.396152,1.501068 C 92.034201,70.78544 91.96542,70.30643 91.96542,70.30643 l 0.401848,0.268508 c 0.10678,0.150719 0.189471,0.286357 0.397214,0.382962 0.135494,0.05136 0.340472,-0.0885 0.452024,-0.186289 l 2.504523,1.568958 0.135776,-0.216735 -2.504523,-1.568958 c 0.02727,-0.150581 0.06817,-0.376456 -0.03716,-0.475968 -0.177557,-0.144784 -0.343235,-0.147958 -0.517902,-0.190309 l -1.974719,-1.237061 c 0.06035,-0.09633 0.181033,-0.288984 0.07267,-0.356872 l -1.673695,-1.048484 -0.542263,0.06269 -0.08429,-0.0528 c 0.07543,-0.120408 0.156953,-0.304069 -0.05979,-0.439845 -0.288983,-0.181034 -1.747254,-1.278995 -1.902473,-1.191804 -0.155212,0.08721 -0.49396,-0.04118 -0.49396,-0.04118 0,0 0.03945,-0.277083 -0.06588,-0.376595 -0.09024,-0.123593 -0.11999,-0.47756 -1.733619,-1.354287 0,0 -0.444202,-0.09384 -0.120689,0.192656 0.331052,0.274461 1.783515,1.167583 1.655285,1.372278 a 0.42625637,0.42625637 0 0 0 -0.05281,0.08429 l -1.41329,-0.902123 -0.02395,-0.149129 -3.654086,-2.624427 c 0,0 0.165806,-0.130861 0.02132,-0.221374 -0.156534,-0.09806 0.127059,-0.523993 -0.2977,-0.488288 -0.436799,0.02816 -0.728967,0.01279 -0.728967,0.01279 l -0.07543,0.120409 -0.275764,0.145812 -0.979816,-0.630575 c 0.01668,-0.106918 0.0078,-0.280127 -0.05238,-0.317841 -0.07225,-0.04526 -0.340332,-0.04554 -0.501502,-0.02914 l -2.200454,-1.412004 c 0.01364,-0.07529 0.03045,-0.316248 -0.05384,-0.36905 -0.09633,-0.06035 -0.442749,-0.04263 -0.584336,-0.03073 L 74.17751,58.073401 c 0.0091,-0.09487 0.0093,-0.228918 -0.06297,-0.274176 -0.06021,-0.03771 -0.245457,-0.0364 -0.418668,-0.02755 L 72.69199,57.126021 c 0,0 -1.944548,-1.285224 -2.074986,-1.853163 0,0 -0.730002,-0.44054 -1.196358,0.49125 -0.62289,0.833731 0.09203,1.298357 0.09203,1.298357 0.555895,-0.137983 2.560787,1.050916 2.560787,1.050916 l 1.748985,1.062119 0.506756,0.770148 1.468997,0.920254 c 0,0 0.541565,0.607523 0.765985,0.597215 0.244004,-0.01481 0.626007,0.526261 0.626007,0.526261 l 0.120689,-0.192656 5.514765,3.454722 -0.05149,0.269539 c 0,0 0.939195,0.588359 0.881755,0.787105 -0.05294,0.218331 0.22414,0.257779 0.276944,0.17349 m 8.020543,3.817292 -0.469598,-0.29418 -0.09806,0.156538 -4.900674,-3.070025 0.07543,-0.12041 5.392903,3.328082 m -16.87114,-10.35096 3.883282,2.365618 -0.03177,0.130999 1.637432,1.159898 0.472923,-0.0056 3.478388,2.128736 c -0.04525,0.07225 -0.09806,0.156534 -0.134324,0.267945 l -3.816988,-2.39115 -5.78271,-3.589045 0.286217,-0.05543"
     style="fill:#f3ad42;fill-opacity:1;fill-rule:nonzero;stroke:none;stroke-width:0.00475433"
     id="path6" />
</svg>
