<?xml version="1.0" encoding="UTF-8" standalone="no"?>
<svg
   width="600"
   height="600"
   viewBox="0 0 158.78049 158.7551"
   version="1.1"
   id="svg2"
   xmlns="http://www.w3.org/2000/svg"
   xmlns:svg="http://www.w3.org/2000/svg">
  <defs
     id="defs2" />
  <path
     d="m 68.168425,18.450055 c -0.01748,-0.127224 0.70953,-0.227139 0.846324,-0.579274 0.107958,-0.292604 -0.178301,-0.623649 -0.289161,-0.756563 l 2.017468,-0.277258 -0.672064,0.499771 5.216331,-0.716875 0.02498,0.181755 c 0,0 -1.690311,0.232297 -1.665332,0.414051 0.02498,0.181752 1.569885,-0.03056 1.928397,-0.116869 0.249459,-0.07132 0.206997,-0.380301 0.148168,-0.538883 l 3.616899,-0.497065 c 0.399857,-0.05495 -0.06494,-0.47256 -0.06494,-0.47256 l 0.62046,-0.06675 c 0.230594,0.0609 0.424837,0.126801 0.710647,0.05048 0.176758,-0.06133 0.264021,-0.36962 0.293564,-0.558868 l 3.780481,-0.519547 -0.04496,-0.327156 -3.780479,0.519546 c -0.09768,-0.171764 -0.244199,-0.429406 -0.430948,-0.440779 -0.2958,0.0036 -0.462568,0.13764 -0.670683,0.24032 l -2.98076,0.409642 c -0.01998,-0.145402 -0.05995,-0.436209 -0.223526,-0.413729 l -2.526377,0.347198 -0.485315,0.511143 -0.127225,0.01749 c -0.02498,-0.181753 -0.0963,-0.431214 -0.423456,-0.386253 -0.436209,0.05995 -2.790132,0.179741 -2.871709,0.394655 -0.08155,0.214927 -0.523471,0.36824 -0.523471,0.36824 0,0 -0.190364,-0.307175 -0.377114,-0.318546 -0.191744,-0.04772 -0.514332,-0.373764 -2.838972,0.09386 0,0 -0.517784,0.274863 0.03997,0.290807 0.555252,-0.0022 2.7338,-0.320146 2.776262,-0.01117 a 0.5503862,0.5503862 0 0 0 0.01749,0.12723 l -2.147191,0.276564 -0.147211,-0.127916 -5.793375,0.425803 c 0,0 0.0559,-0.266945 -0.162197,-0.23697 -0.23628,0.03247 -0.308026,-0.62434 -0.699274,-0.237236 -0.409423,0.389603 -0.711602,0.616317 -0.711602,0.616317 l 0.02498,0.181754 -0.15246,0.372811 -1.492879,0.186643 c -0.07201,-0.119738 -0.224217,-0.284003 -0.315093,-0.271514 -0.109054,0.01499 -0.374881,0.236705 -0.520974,0.386414 l -3.349264,0.42325 c -0.04883,-0.08588 -0.23171,-0.338528 -0.358937,-0.321044 -0.145404,0.01998 -0.473942,0.324393 -0.604358,0.453428 l -1.256599,0.154171 c -0.06952,-0.101555 -0.180373,-0.234472 -0.289424,-0.219486 -0.09088,0.01249 -0.273322,0.167193 -0.43759,0.319399 l -1.529231,0.191638 c 0,0 -2.990752,0.336945 -3.590275,-0.117709 0,0 -1.088024,0.168048 -0.778456,1.477363 0.07329,1.34179 1.166309,1.210095 1.166309,1.210095 0.436472,-0.597024 3.407243,-1.079369 3.407243,-1.079369 l 2.612258,-0.396034 1.13979,0.343364 2.217395,-0.304733 c 0,0 1.039611,0.153426 1.253411,-0.04262 0.229476,-0.216724 1.055977,0.003 1.055977,0.003 l -0.03997,-0.290805 8.324321,-1.144001 0.172189,0.309671 c 0,0 1.417678,-0.194829 1.525349,0.04964 0.128345,0.260142 0.435518,0.06978 0.418034,-0.05745 m 11.107064,-2.859771 -0.70884,0.09741 0.03247,0.236285 -7.397376,1.016612 -0.02498,-0.181754 8.098723,-1.168554 m -25.285837,3.715738 5.806129,-0.872 0.07701,0.156085 2.58271,-0.20679 0.463951,-0.397096 5.208838,-0.7714 c 0.01499,0.109052 0.03248,0.23628 0.0888,0.376687 l -5.761593,0.791808 -8.701007,1.232804 0.23766,-0.291922"
     style="fill:#f8e3ba;fill-opacity:1;fill-rule:nonzero;stroke:none;stroke-width:0.00613884"
     id="path2" />
  <path
     d="m 33.579109,82.875837 c -0.229487,0.05637 -0.551656,-1.254943 -1.222304,-1.437797 -0.556164,-0.141491 -1.107143,0.445822 -1.329127,0.674176 l -0.894055,-3.638932 1.043412,1.134129 -2.311626,-9.408754 0.327829,-0.08054 c 0,0 0.749068,3.048832 1.076895,2.968288 0.327827,-0.08054 -0.356792,-2.867111 -0.583458,-3.506668 -0.178321,-0.442854 -0.735638,-0.305928 -1.01458,-0.167876 l -1.602839,-6.523845 c -0.177197,-0.721226 -0.852364,0.209415 -0.852364,0.209415 l -0.241058,-1.122679 c 0.06724,-0.433676 0.150695,-0.80176 -0.0438,-1.310194 -0.146117,-0.311724 -0.727021,-0.412333 -1.079031,-0.430133 l -1.675333,-6.818899 -0.590094,0.144984 1.675333,6.818896 c -0.295617,0.21167 -0.73903,0.529193 -0.724052,0.873134 0.06331,0.540635 0.34054,0.820143 0.568332,1.181323 l 1.32094,5.376437 c -0.262266,0.06443 -0.786802,0.193305 -0.714308,0.488354 l 1.119564,4.556853 1.028433,0.790191 0.05636,0.229474 c -0.327827,0.08054 -0.770683,0.25887 -0.625711,0.848968 0.193315,0.786799 0.863677,5.071639 1.272611,5.179739 0.408951,0.108041 0.774226,0.887406 0.774226,0.887406 0,0 -0.525661,0.407245 -0.510682,0.751186 -0.05052,0.360063 -0.585444,1.012884 0.715851,5.177473 0,0 0.602254,0.894896 0.524537,-0.128872 -0.110512,-1.015712 -1.109824,-4.941635 -0.552511,-5.078559 a 1.0127426,1.0127426 0 0 0 0.229476,-0.05639 l 0.917649,3.876469 -0.205878,0.293918 1.889539,10.520559 c 0,0 -0.49923,-0.05115 -0.402572,0.342247 0.104706,0.42618 -1.083547,0.683356 -0.300212,1.325152 0.791456,0.674595 1.26427,1.18415 1.26427,1.18415 l 0.327827,-0.08054 0.711478,0.207559 0.627675,2.696271 c -0.20537,0.15472 -0.476761,0.46476 -0.436493,0.62867 0.04833,0.1967 0.505039,0.64069 0.807005,0.87936 l 1.416458,6.0482 c -0.147831,0.10583 -0.575114,0.48892 -0.518741,0.7184 0.06438,0.26225 0.684501,0.80518 0.945628,1.01911 l 0.52297,2.2701 c -0.172586,0.14664 -0.394527,0.37502 -0.346197,0.57172 0.04031,0.16391 0.358356,0.46815 0.668381,0.7396 l 0.64378,2.76184 c 0,0 1.189811,5.40864 0.472675,6.59295 0,0 0.516055,1.95892 2.852829,1.14146 2.4415,-0.39126 1.991024,-2.36631 1.991024,-2.36631 -1.176245,-0.68434 -2.628305,-6.02856 -2.628305,-6.02856 l -1.225408,-4.70467 0.409927,-2.15168 -0.982638,-3.99954 c 0,0 0.08153,-1.93195 -0.31822,-2.28564 -0.440606,-0.37842 -0.196843,-1.93307 -0.196843,-1.93307 l -0.524536,0.12887 -3.688938,-15.014673 0.533705,-0.374466 c 0,0 -0.628246,-2.557083 -0.201495,-2.800975 0.451473,-0.284735 0.04423,-0.810393 -0.185255,-0.754014 m -7.362217,-19.778409 0.314138,1.278548 0.426183,-0.104706 3.278174,13.342736 -0.327842,0.08054 -3.690637,-14.597113 M 37.8709,108.69241 35.162348,98.234025 35.43323,98.063184 34.559813,93.376328 33.744194,92.603379 31.334215,83.218784 c 0.196693,-0.04833 0.426182,-0.104706 0.672342,-0.234705 l 2.553256,10.392252 3.923664,15.687019 -0.579784,-0.37899"
     style="fill:#f8e3ba;fill-opacity:1;fill-rule:nonzero;stroke:none;stroke-width:0.0112958"
     id="path4" />
</svg>
