<?xml version="1.0" encoding="UTF-8" standalone="no"?>
<svg
   width="600"
   height="600"
   viewBox="0 0 158.78049 158.7551"
   version="1.1"
   id="svg2"
   xmlns="http://www.w3.org/2000/svg"
   xmlns:svg="http://www.w3.org/2000/svg">
  <defs
     id="defs2" />
  <path
     d="m 130.55105,138.08067 c -0.18087,-3.82839 -1.80869,-6.99359 -2.98433,-10.36981 0.48231,0.78376 0.99478,1.50724 1.44695,2.32115 0.45217,0.78376 0.90434,1.59767 1.26608,2.44173 0.39188,0.8742 0.66318,1.77854 1.08521,2.65274 -0.0904,-4.15998 -1.05507,-8.35011 0.39189,-12.47995 -1.11536,5.21505 0.78376,10.27938 0.69332,15.46429 0.21102,-2.11014 0.36174,-4.22028 0.69334,-6.33041 0.18086,-1.14551 0.5426,-2.32115 1.02492,-3.40637 0.45217,-0.96463 1.29623,-1.56753 2.71303,-1.53738 -2.74318,2.14028 -3.19535,5.09447 -3.52694,8.07881 -0.12058,1.1455 -0.24116,2.32115 -0.48232,3.46665 -0.18087,0.96463 -0.48231,1.92927 -0.78376,2.86376 -0.24116,0.75362 -1.4771,1.20579 -2.11014,0.78376 -0.15072,-0.0904 -0.2713,-0.42203 -0.24116,-0.60289 a 14.710669,14.710669 0 0 0 -1.98955,-8.44055 c -1.02493,-2.20057 -2.11014,-4.34085 -3.16521,-6.48114 l 0.24116,-0.15072 2.17042,3.61738 c 0.69334,1.26608 1.41681,2.53216 1.98956,3.85854 0.6029,1.32637 1.02493,2.71303 1.56753,4.22027"
     style="fill:#f8e3ba;fill-opacity:1;fill-rule:nonzero;stroke:none;stroke-width:0.0106344"
     id="path1" />
  <path
     d="m 56.833886,96.342933 c 2.632865,-2.785194 3.784493,-6.152989 5.401732,-9.341332 -0.230218,0.891012 -0.39609,1.761952 -0.668932,2.652156 -0.25112,0.869297 -0.523961,1.759502 -0.881237,2.605461 -0.358089,0.888576 -0.821512,1.711178 -1.158694,2.621477 2.934509,-2.94996 5.284459,-6.550726 9.263368,-8.372142 -4.53083,2.812891 -6.862612,7.693146 -10.660974,11.223573 1.666658,-1.311286 3.2915,-2.666017 5.04177,-3.89042 0.950743,-0.664072 2.048629,-1.218717 3.164988,-1.623782 1.008567,-0.343163 2.028278,-0.153125 2.989067,0.888564 -3.444355,-0.492193 -5.886369,1.230673 -8.266486,3.061323 -0.908933,0.707496 -1.839588,1.4359 -2.83214,2.05652 -0.820429,0.53863 -1.724474,0.990396 -2.606806,1.421248 -0.710209,0.348862 -1.89308,-0.228045 -2.028009,-0.976806 -0.03939,-0.171282 0.115927,-0.488134 0.267135,-0.591839 a 14.710669,14.710669 0 0 0 4.701581,-7.28672 c 0.874715,-2.264478 1.66419,-4.530578 2.474573,-6.77497 l 0.275829,0.06923 -1.101139,4.072304 c -0.431379,1.37753 -0.841863,2.77677 -1.400312,4.109234 -0.537534,1.35418 -1.243935,2.619855 -1.953599,4.056018"
     style="fill:#f5d25e;fill-opacity:1;fill-rule:nonzero;stroke:none;stroke-width:0.0106344"
     id="path7" />
  <path
     d="m 18.666065,31.276242 c -1.135646,-3.660545 -3.505559,-6.316068 -5.490702,-9.289315 0.663531,0.637675 1.341132,1.209431 1.983052,1.883854 0.634355,0.645237 1.276275,1.31966 1.838223,2.045957 0.598685,0.747912 1.08821,1.555253 1.716081,2.295599 -1.131268,-4.004227 -3.116404,-7.818282 -2.751926,-12.179065 0.2288,5.328079 3.337835,9.753911 4.551208,14.795657 -0.325175,-2.095586 -0.708721,-4.176043 -0.91717,-6.301874 -0.11234,-1.154245 -0.05714,-2.383041 0.13746,-3.554563 0.195675,-1.047225 0.861465,-1.842618 2.240508,-2.168915 -2.118423,2.760094 -1.814909,5.733236 -1.387106,8.70531 0.170689,1.139111 0.348942,2.307408 0.402908,3.476774 0.06695,0.979154 0.01718,1.988567 -0.04016,2.9688 -0.04436,0.790021 -1.127312,1.53783 -1.845991,1.288133 -0.168581,-0.04969 -0.368511,-0.340459 -0.384714,-0.523096 A 14.710669,14.710669 0 0 0 14.674056,27.048137 C 13.129778,25.175119 11.542275,23.375588 9.9839454,21.568484 l 0.1956296,-0.206407 3.00861,2.957097 c 0.988827,1.051618 2.00682,2.095676 2.894044,3.235922 0.916407,1.132671 1.672857,2.369085 2.576274,3.69197"
     style="fill:#f3ad42;fill-opacity:1;fill-rule:nonzero;stroke:none;stroke-width:0.0106344"
     id="path8" />
  <path
     d="m 133.93666,27.101164 c -0.11825,-2.502937 -1.18249,-4.572292 -1.95111,-6.779608 0.31533,0.512409 0.65037,0.985409 0.94599,1.517529 0.29562,0.512409 0.59125,1.04453 0.82775,1.596362 0.2562,0.571538 0.43357,1.16278 0.70949,1.734317 -0.0591,-2.719725 -0.68979,-5.459162 0.25621,-8.159182 -0.72921,3.409513 0.51241,6.720487 0.45328,10.110294 0.13796,-1.379574 0.2365,-2.759149 0.45329,-4.138716 0.11825,-0.748915 0.35475,-1.517529 0.67008,-2.227028 0.29562,-0.630659 0.84745,-1.024825 1.77373,-1.005113 -1.79344,1.399279 -2.08906,3.330679 -2.30585,5.281791 -0.0788,0.748908 -0.15767,1.517529 -0.31533,2.266437 -0.11825,0.630659 -0.31533,1.261323 -0.51241,1.872277 -0.15767,0.492704 -0.96571,0.788325 -1.37958,0.512409 -0.0985,-0.0591 -0.17737,-0.275916 -0.15766,-0.39416 a 9.6175888,9.6175888 0 0 0 -1.30074,-5.518288 c -0.67008,-1.438696 -1.37957,-2.837975 -2.06936,-4.237261 l 0.15767,-0.09854 1.41898,2.364983 c 0.45329,0.827742 0.92629,1.655483 1.30074,2.522648 0.39417,0.867159 0.67008,1.773734 1.02483,2.759142"
     style="fill:#e98219;fill-opacity:1;fill-rule:nonzero;stroke:none;stroke-width:0.00695259"
     id="path9" />
</svg>
