<svg xmlns="http://www.w3.org/2000/svg" width="2070" height="340" viewBox="0 0 547.7 90">
  <path d="M419.7 47c2-2.4 1.6-4.6-.4-7a43.5 43.5 0 0 1-5.6-8.4c2.3 2.6 4.4 5.4 6.9 8 1 1 2.7 1.6 4 2.4-1.2 3.5-1.1 3.5 4 3.7.1-.4.3-1 .2-1.3l-2.4-6c1 0 2.7 0 2.8-.3.4-2.6.6-5.3.9-8 .3-3.7.6-7.5 1.2-11.2.1-.9 1.5-1.5 2.3-2.3.4 1.1 1.4 2.4 1.2 3.3-1 4.5-2.5 9-3.3 13.9l4.9-7.2-4.3 10.9c-1.5 4 .2 6.8 3.4 10l1.5-6.8 1 10.6h2.3c.5-3 .6-6.2 1.4-9 1.1-4 2.7-7.8 4.3-11.6.2-.4 1.7-.2 2.5-.3l3.7-.3 4.8 11 .3-.4 1 6.8c7.5-5 6.1-10.9 4-17l4.2 7.7 2 9.4 1.1-.1.6-2.3 4.3 10.5 1.8-.4V23.4h1.4l1.6 19.2 6.3-15c-2.8 9.7-7.2 19-4 29.5l1.5.3 1.1-5.4 3.2 6.5L496 32c-.6 3.2-3.2 6.5-.1 10l3.6-3c-.1 2.7-4.5 4.5-1.8 8.2l2.6-2.2.8-1c1.3-2.3.4-5-1.7-5 .2-2 4-3.8.4-6.2 3.2.2 5.5-.3 5.8-4.3.2-4.8 1-9.6 1.4-14.5h1.2l5.8 19.2 7.7-6-5.7 6.2c-.8 1-2.3 2.1-2.2 3 .7 5.9 1.8 11.7 2.8 17.5h1.7l.4-9 2.4 4.3 1.1-.2c.5-6 1-12 1.2-18 0-1.2-1.2-2.5-1.9-3.7L520 15l3.2 5.8.8-.2-1.2-5-3-13c0-.8.9-1.7 1.3-2.6.8.7 2.3 1.3 2.4 2l1.2 14.3c.2 3.6.7 7.2.8 10.7.2 6 0 11.9 1 17.8l10.9-22.5 1.4.6A85.4 85.4 0 0 0 527 53l1.3.7 4.8-7.4v2.2l.7.5 5.5-9.5h-.1l-1 3.7.6.4 3.5-5.5.4.2-10.6 24 1.2.7 12.6-13.3A76.7 76.7 0 0 0 532 88.5c-2-.2-4.2 0-6.5.2-4.1.3-8.5.7-12.8-1.6-2.6 2.8-12.5 2.9-14.4-.4-2.3 3-24.4 3.2-27.2.6l-6.5 2.2 3-12-1.6-.7-5.5 11.9-3.5.2c-11 0-22 .2-33-.1-4-.2-8-.3-12 0-2.7.2-5.4.2-8.1.1h-4.4l-4.7-.2c-2.4-.2-4.7-.4-7.2-.1-1.3.2-2.9-1-4.6-1.8l-2.6 2.1-1.7-2.3c-3.5 3.6-24.7 3.4-26.3.4-2.6.6-4.8 1.6-7.1 1.7-6.4.2-12.8 0-19.3 0l-1-8.3h-.9v7.8c-3.8.7-7.6 2-8.7-3.5v2.9c-2.6.5-4.5 1.2-6.3 1.2H276c-3.3.2-6.3.3-7.4-4 0 1.1 0 2.3-.2 3.8h-19l-.8-5.3-2.4 5.4-1-.4-.5-5.4-1-.2-2.5 6c-7.3 0-15 .4-22.5 0-3.6-.3-7.2-.1-10.7 0-3.8.2-7.5.4-11.2.1h-7.3c-4.9 0-10 0-15.5-1.3-5.3 2-12.5 1.2-19.5 1-1.6 0-3.1-1-5-1.8-1 2.8-3.5 1.6-6.3 1.4-5.3-.2-10.7.6-16 .7h-17.3l-1.3-5.2h-1.2l-.5 4.5c-9.6 2.2-27 1-28.4-1.3-2.7 1-5.2 1.7-8.1 2.6l-.5-4.7h-.6l-1.4 4H49.6A509 509 0 0 1 31 88c-1.7 0-3.5.2-5.3.6-3.7.6-7.4 1.2-10.6-1.8l-3.7 1.9-1-3.2-7.6 3.8-1-1.4c1.4-2.7 4-5.4 3.9-8-.1-2.2-3.4-4.2-5.7-6.8L7.8 78l-1.3-8 1-.4 4 6.3c2.6-3.4.2-5.7-.7-8-1-2.4-2.3-4.7-2.7-7.5l3.5 4.8.5-8.8 2.5 12.7 1.2-.2.4-3.8h.7l1.7 7.7c3.6-3.8 2.1-7 1-10.5l2.5.6 1-7.7 5.8 5.3c3.4-5.4-1-8.8-1.6-14.2l4.6 5.9-1.4.5 3.6 8.2c3-1.4 3-3 1.2-5l-3.2-3.5 7 4.2c0-1.3.2-2.8.4-4.3l2.6.8L31 36.7l.6-.4 11.7 12.5 1.5-3.3 4 10.5c.1-10.8-5.8-19.7-9.4-29.3l1-.7 11.9 21.3c.4-7.5.7-14.8 1.2-22.1.4-5.3.8-10.5 1.4-15.7.2-1.1 1.7-2 2.6-3 .3 1.3 1.3 2.7 1 3.8-.8 3.8-2 7.4-3 11.1-.3 1.1-.5 2.2 0 3.7l3.5-5.5-2.8 10.8c-.3 7.5-.7 14.9-.8 22.3 0 .8 1.3 1.5 2 2.3-3.1 3-.5 5.9.2 8.8.5-1.6.8-3.2.7-4.7-.1-1.4-.7-2.7-1-4 .4-1.5 1.3-3.1 1.2-4.6-.6-6.7-1.5-13.5-2.3-20.2 1.1 3.8 2.4 7.5 3.4 11.3.5 1.8.5 3.8.7 4.6 2.5-6.7 5.2-14.2 8.2-21.6.4-1 1.9-1.9 2.8-2.8.2 1.4 1 3 .5 4.3-2.3 7.4-5 14.8-7.5 22.2a9.5 9.5 0 0 0-.2 5l11.4-18.5 2.3 1.8-1.4 5.2 1 .5 2.5-2.1-1.8 7.7 2.4.6 2.7-9.3-1.3-.5-2.1 1.6c.8-1.3 1.8-2.5 2.5-4L80.8 35c.7-2.6 1.6-5.1 2-7.8.4-1.8 0-3.7.7-5.6l1 20.3 1.2 1.2 6.5-9.8L94 35l-7.7 8.2c-.6.7-.5 1.9-.8 2.8l2.6.5v6.8l1.1.8 5.5-4.7-1.2 12.8 1.2.3 4-6.3-4.1 13c3-2 7-10.8 6.2-12.7 0-.2-.7-.2-1.3-.2h-.9l2.2-4.6 2.9 8.8h.7l2.8-16.8h1.2c-1.5 4.2.4 6.3 5.2 7.9l-2.1-14.3c9.2 2.1 7.7 10.7 11.3 16.9 3-5.4 3.1-11 2.5-16-.6-5-4.1-9.7-5.7-15l5.7 9.4.7-.3V14.4h.9l2.3 28.3 1-.1c1.5-3.6 3.1-7 4.8-10.6h-.2l14.1-16.4c.3.2-17 23.4-17.9 38.7l7.8-17.3 1 .5-1 5c-4 4.2-6.7 15-4.2 18.4 1.4-3.8 3.1-7.2 4-10.9.7-2.3.2-5 .1-7.5.8-.4 1.9-.5 2.1-1 2.2-4.6 4.2-9.3 6.3-13.9.5-1 1.4-1.7 3.1-2.3 0 1.2.4 2.5 0 3.5-2.4 5-5.6 9.9-7.3 15.2-1.1 3.2-.2 7.2-.2 10.8l1 .3 4-7.5.4.2c-.6 1.4-1.4 2.9-1.5 4.4-.1 1 .8 2.1 1 3.3.5 2.2.6 4.5 1.2 6.8.3 1.2 1.1 2.3 1.7 3.4 1-1 2.2-2 2.7-3.2 3.1-7 0-13.9-.3-21l4.6 15.3 1.3 1.3c.4-1 .7-2.2 1.3-3.1 1-1.7 2.9-2.8 4-4.1 1.6-1.8 1.5-5.3 1.7-8 0-1.1-1.1-2.3-1.7-3.5l.7-1.3c1.2.6 2.7 1 3.5 2 1.8 2.3 3 5 4.9 7.3.6.8 2.4.5 3.7.8.4 1.6.6 3.4 1.3 4.9 1 1.9 2.4 3.5 3.6 5.3l-1.4-.3 2.6 7.6 2.2-1-3.7-6.6c.6-.6 1.7-1.3 1.6-1.6-.7-2.1-1.4-4.3-2.7-6-.7-1.1-2.4-1.5-3.7-2.2l.9-4.6 3.3 1.1c-.2 3.4-.2 3.4 5.4 3.5L183 42c3 1.5 3.3-.5 3.5-2.6l1-14c.1-.7.3-1.6.7-2 .6-.8 1.5-1.3 2.3-1.9.4 1 1.4 2 1.2 3-.6 2.8-1.6 5.6-2.5 8.4-.4 1.2-.9 2.3-.5 3.9l3.7-4.8-3.6 9.5c-1.2 3.5.7 5.8 3.6 8l1.4-6 1 9.8 1.8.1c.8-2.3 1.7-4.5 2.3-6.8.9-3.2 1.3-6.5 2.4-9.6.7-2.3 2-4.6 5.1-2.4.4.3 1.7-.6 2.7-1 1.9 5.5 5.1 10.4 6.8 16.4 5.5-6.5 5.5-6.5 3.6-14.6l3.2 5.3 1.3-1.5.9 10.5h1.5l.7-2 4.2 9.5 1.7-.2 1.2-28.2c.4 1.8 1.2 4.7 1.4 7.6.3 3 0 6.2 0 10.7l4.5-10.7-1 13c-2.7 2.1-2.3 6.6 1.9 10l-1-7 4.4 8c.9-2.1 2-3.7 2.2-5.3a38 38 0 0 1 6.7-19.1l-4.1 13c3.1-2.8 5.7-5.5 8-8.4.6-1 .3-2.6.5-4 1.5-.4 4-.6 4.2-1.4.9-3.1 1-6.4 1.4-9.6l.7-5.8h1.3l6 18 3.4-8.8 2.5 2.3c0-3.7-5.5-7.2-.3-11.2l3 5.2.7-.2-.8-4.2c-1-3.6-2.2-7.1-2.9-10.7-.2-1.2.7-2.6 1.1-3.9 1 1.2 2.5 2.3 2.6 3.5a49 49 0 0 0 8.9 21.6l1 1c5.2-5.1 7.3-10.8 6.2-18.2-.6-4 1-8.5 2-12.7 0-.7 1.4-1 2.2-1.5.4.8 1.3 1.8 1.2 2.6l-3 13c-.3 1.4-.6 2.9 0 4.6l2.7-4.9c-.3 2.7 0 4.8-.9 6-2.5 4-.8 5.3 2.4 5.7v16.8a232 232 0 0 1 11.5-27c.3 1.2-4 17-6 23.7-1 3.4-1.3 7-1.4 10.7l11.5-20.4 1.7 8.3 2.8-2.7-3.3 8.8h1.3c.8 0 1.5 0 2-.4 3.2-2.5 3-6 2.4-9.8l-2.5 1.5c4.7-6.2 2-13.7 3.4-21.4l1.3 25 6.1-9c.6.4-8.6 10-6.5 18.4l3.6-7c.3 3.4-2.1 6.7 2.2 9l-2.6 7.5 1.2.4c1.3-2.6 2.7-5.2 3.9-7.9.1-.3-.6-1-1-1.6l3.1-3.7-1.2 14.5 1.2.3 4.8-7.9c-.4 5.3-5.5 9.6-3 15.4 2-4.2 3.3-8.5 4.5-12.9.1-.6-1-1.5-1.6-2.3l1-2.8 2.7 3.8c2-5.3 3.5-9.7 5.1-14.3v6.6c-.3 4.7-.8 9.3-1.3 15 5.7-4 5.7-9.1 1.3-15l5.5 2.8-2.1-15.4 1.7-1 2.3 4.2-.2-2.6c.3 0 .7-.2 1-.4l6.4 18c3-6 3.2-12.3 2.6-17.6-.7-5.6-4.3-10.9-6-16.6l6 10.5.7-.3V9l.9-.1 2.1 30.5h1.5L378 25c.5-1.5 1.5-2.7 2.3-4V21c-.8 2-1.5 4-2.1 6.1l.4.1L392.1 10l.9.6c-3 4.1-6.3 8-9 12.4-2.6 4.4-4.9 9.1-6.7 14-1.8 4.8-2.9 10-4.2 15l1.2.4 7.4-18 1.2.3-1 4a46 46 0 0 0-5.7 20l1.5.4 4.6-10.8c-.4 3.2-.2 6.6-1.4 9.5-1.6 3.9-.2 6.3 3.3 9.8l-.1-18.8-2-.4c0-3.3-.2-6.6-.4-9.9l1.5 1.5 8.4-19.7 2 .5c-.2 1.6 0 3.4-.7 4.8-2.4 5.4-5.6 10.5-7.5 16.1-1 3.4-.2 7.5-.2 11.3l1.5.2L389 50l-1.3 14 1.6.2 1.7-10.3c.7 4.1-.8 8.9 4.8 9.8 3.8-8.4 1-17 .4-25.6l4.8 18c1-1.5 1.7-2.7 2.7-3.7 1.2-1.3.9-4.3 3.9-3.7l1-9.9v-4c1.1.8 2.4 1.5 3.2 2.5 1.6 2.3 2.7 4.9 4.4 7.1.8 1.1 2.4 1.7 3.6 2.5l5.4 8.6c-2.4 1.8-1.1 6.5 3.6 9.1l-3.7-9.2 1.5-.4-3-7.4c-1-2.5-2.4-2.2-4-.5m-142 3c3.9-5.5 3.2-8.8-2.6-14.3-5.7 3.8-5.7 3.8 2.7 14.3m6-24.8-2 .2 2.7 18c6.5-7.5 1.3-12.7-.6-18.2M315.7 41c-6 6.1-8 12.5-5.6 15.8 6.7-3.1 3.7-9.7 5.6-15.8M140.9 50h-.6l-3.6 12c-.3 1.2-.7 2.5-.3 3.5.3.9 1.5 1.8 2.5 2 .5 0 1.9-1.1 1.9-1.8.2-5.2 0-10.4 0-15.7m185-4-1.7-.6c-1.5 3-3.1 6-4.2 9.3-.4.9.8 2.4 1.2 3.6 1.2-1 3-1.7 3.3-2.9.8-3 1-6.3 1.4-9.5M82.5 48.6 81 48c-1.5 2.8-3.3 5.5-4.5 8.4-.3.8 1 2.3 1.5 3.5 1-.8 2.8-1.4 3-2.4.8-3 1-6 1.4-9M446.6 41c-4.5 3.8-6.3 9.7-4.6 14 4.5-3.5 5.2-8.2 4.6-14M70.7 44.5l-6.2 12.2c6.4-.3 6.4-.3 6.2-12.2m257 13.1c-4.2 5.7-4.7 8.8-2 12l.6-6.2h.4l.6 6.5c.8-3.9 3.4-7.7.4-12.3m-124.3-14c-4.8 3.7-5.2 8.1-5.7 13.5 5.6-3.3 6-7.8 5.7-13.6m92.9-15.8c-6.1 6.5-6.2 9.3-1.2 15l1.2-15M506 38.4l1.5.7c1.3-1.3 4-2.8 3.8-3.8-.5-3-2.2-5.7-4-9.8l-1.3 13M268.6 52.2l-2-4c-6 6.4-5.6 9.6-1.7 13.5 2-3-1.9-7.9 3.7-9.5m-5.8-9.9c6.9-3.4 6.9-3.4 1.3-11.7l-1.3 11.7M452.1 58c6-8.2 6-8.8 2.2-13.7L452.1 58m-150-17.3c-4.4 2.8-5 6-2.5 12 4.2-3.5 1.3-8 2.4-12m-41.5 29.5h1.6c3.9-4 .2-7.1-.9-10.6l-1.5.1.8 10.5M209 59.8c5.7-6.7 6-7.7 2.8-12.3-.5.9-1.1 1.6-1.3 2.4-.6 3.2-1 6.4-1.5 9.9m289.7-2.4 3.8-10.1c-5.7 1.7-5.1 5.8-3.8 10m12.6-2.2-.7-9.2c-5.1 4.8-5 5.1.7 9.2m-296 1-1.5-.5c-1.5 3.2-4.5 6-3.2 10.1l1.3.4 3.4-10m37.8-7.2 1.5.7c4.4-3.2 4.4-3.2 2.8-8.6l-4.3 7.9m212.4 6.4c4.4-3.1.5-6.3 1.3-9.6h-1.3v9.6m-160-10.5h1.2l2.5-12.3c-.5 0-3 8.1-3.7 12.3m-83.1 3.6v9c4-3.1.9-6 0-9M319 38c-.6-.1-2.5 5.8-2.9 8.9l1.5.2 1.4-9.1M107.3 50.3l-.3 6.4h1.9c2.7-2 1.2-4.1-1.6-6.4" style="fill:#911317;fill-opacity:1;fill-rule:nonzero;stroke:none;stroke-width:.0352778"/>
</svg>