<svg xmlns="http://www.w3.org/2000/svg" width="190" height="660" viewBox="0 0 50.3 174.6">
  <path d="m78.3 109.4 2.5 7.8 1-.3-4.4-26.2h.4l3 12.1h.3v-18l3.3 10.4h.6V74.6h.2l.9 9.5c4.3-4.2 1.8-8.6 2.3-12.7l1.5 6.3h.7v-3.4c-1.6-14-3.2-28-5-42-.3-1.7-2.5-3.2-2.9-5-2-8.3-3.6-16.7-5.4-25-.1-.8.1-1.7.3-2.5l1.5-5.4c7.4 8.8 8.3 20.7 8.5 31.8.1 10.1 2.3 19.8 2.9 29.8.5 7.8 1.4 15.7 2.3 23.5.1 1.2 1.4 2.3 2.6 3.3l-.7-5.6.4-.2.7 1.4.6-2.4h.7l.8 17.2h1.5V71.6l2.3 12.8h.5V72.7l1.5 2.3V26c0-3 .7-6.3-1.7-9.2-1-1.2-.8-3.4-.9-5.2 0-8-.2-16 0-24 0-2 1.4-4 2-6 .4-1 .8-2 .9-3 0-2.2 0-4.4-.5-6.5l3.3 11.7c.3 1 .5 2 .5 3 0 9.4 1 18.8-.6 27.9-2.9 17.9-1 35.7-1.2 53.6l-.2 16.9c0 1.5.3 3 .4 4.6h.9l.3-7.2h.4v10.3h.8V70.7l1.5 8.6h.5c.7-3.5 1.6-7 2.2-10.7l4-28.6c.1-.7.4-1.4.2-2-3-10 1.6-18.6 4.5-27.5.8-2.4 3.6-4.1 5-5.7 1.8 9.8-2 19.7-5.5 29.4-2.3 6.5-4.1 13-5 19.7-1 9.3-1.7 18.7-2.6 28v4l1 .1 1.4-14.3h.3l.1 3.3.7.2 2.6-9.4c-1.6 10.7-4.3 21.4-2 32.2 1.5-1.6 1.5-1.6 1.5-8.7 0-3.3 0-6.6.8-9.9v12l1 .1 1.1-5.6 1.4.5-2.5 24.8c.3 0 .6 0 .8.2l4.7-13.3h.3c-1.6 5.9-4 11.6-4.6 17.6-.8 6 0 12.1.4 18.2 0 .7 1 1.4 1.8 2 2.5 2 2.5 3.6-.4 4.8a42 42 0 0 1-9.8 2.7 73 73 0 0 1-27.7-1c-1.5-.3-3-.8-4.3-1.5-3.1-1.5-3.1-2.8-.7-5.2.8-.7 1.6-2.1 1.4-3.1l-3-16.5-1.6-6.5.7-.2m4.6 6.1 2-.1-1.5-11.7-1.3.1.8 11.7" style="fill:#530b0d;fill-opacity:1;fill-rule:nonzero;stroke:none;stroke-width:.0352777" transform="translate(-76.7 29.1)"/>
</svg>