<svg xmlns="http://www.w3.org/2000/svg" width="530" height="600" viewBox="0 0 140.2 158.7">
  <path d="M135.1 44.8c-5.3 29-3 58 2 86.9.9 5.5 1.7 11 3.1 16.6-3-32 .7-63.2 13.4-95l-14.3 1.2 2.3-2.6-5.6-.7c7-3.7 12.4-1.9 17.7 1.7 2-4 4.2-7.8 6.2-11.7a187.6 187.6 0 0 0-17.1 103c0-24.5 5.4-47.5 20-67.7-9.6 16-15.7 33.1-16.2 52l7.2-31.5 1.2.3c-1.7 9.2-3.5 18.3-5 27.5-1.3 8.3-1.1 8.3 4.8 16 1.7-7.4 3-14.7 5.1-21.8 4.6-16 11.6-30.6 25.6-40.6a44 44 0 0 1 31.3-7.9c3.7.5 7.2 3.3 10.5 5.9-9-7.1-18.1-4.1-27-.6a57.8 57.8 0 0 0-31.8 30.5c-4.2 8.9-7 18.3-10.5 27.5l1.5.7 5-5.5a47.4 47.4 0 0 0-4 38.8l3.8-24 .9.2-.8 9.3.6.2 3.2-7.2-3.5 30.7c4.6-9.4 5.6-20.7 16.6-25.9a51.1 51.1 0 0 0-13.6 34.5l6.4-12.4.4.2c-2.2 6.2-4 12.6-6.8 18.5-.7 1.7-4.3 2.1-6.7 2.7-2.3.6-4.7.7-7.3 1l-.8-6.8h-.4l-.8 7.8c-8.3-.5-16.5-1-24.8-1.8-.8 0-1.9-1.5-2.2-2.6-1.4-5.2-2.7-10.5-3.3-16.2l4.7 9.1c-1.2-10.3-.8-21.1-10.2-28.5 5.3-3 6-2 12.2 15l-5.3-37.9.7-.1 6.5 28.8c3.5-6 2.4-11.4 1.4-17a199 199 0 0 0-14.9-52c-3.6-7.5-9-14-14.5-20.4-3-3.6-7.6-4.9-13.2-.7 2.4-5.4 5.8-5.9 9.5-5.1 6.4 1.3 10.4 5.8 13.7 11.1a143.7 143.7 0 0 1 15.7 43.8c2.2 9.6 4 19.3 5.9 29l1.4.3c.3-1.8 1.1-3.7.8-5.3l-7.6-42.4 3.5 5.3c-.2-5.7-.8-10.1-.6-14.5a2740 2740 0 0 1 2.3-46c.1-1.3 1.2-2.5 1.8-3.7m13.5 93.8c0 7-4.2 14.2.6 22 3.5-8.1 4.8-15.2-.6-22M134.4 162H132v19.5h1.3l1-19.5" style="fill:#530b0d;fill-opacity:1;fill-rule:nonzero;stroke:none;stroke-width:.0352777" transform="translate(-87.6 -41)"/>
</svg>