<svg xmlns="http://www.w3.org/2000/svg" width="150" height="100">
  <path d="m1 15.2 5.5-5.5v15.5c1.3-1.6 3.5-2.8 6.6-2.8 3.9 0 8.4 1.6 8.4 8.3v15.1h-5.6V32.3c0-3.2-1.2-4.6-4-4.6-4.2 0-5.4 3.6-5.4 6.4v11.7H.9V15.2M17.7 61c-.7-1.5-2.5-3.3-5.7-3.3-2.6 0-4.2.9-4.2 2.3 0 4 14.4.5 14.4 9.2 0 5.5-5 8-10.2 8-5.4 0-9-1.9-11-4.2L5 69.8c1.3 1.9 3.7 2.9 6.6 2.9 2.6 0 4.4-1.5 4.4-2.7C16.1 66 2 69.3 2 60.6c0-5.1 4.5-7.4 10.1-7.4 5.5 0 8.4 2.8 9.5 4.2L17.7 61M94.1 65.2c0 6.8-4.3 12-11.7 12-7.4 0-11.7-5.2-11.7-12s4.3-12 11.7-12c7.4 0 11.7 5.2 11.7 12m-17.6 0c0 3.6 2 7 5.9 7 4 0 6-3.4 6-7s-2-7-6-7-6 3.4-6 7M106.4 40.6c-1 .4-2 .7-3.5.7-3 0-5.8-2.2-5.9-5.6h17c0-8.2-3.4-13.3-11-13.3-7.5 0-11.8 5.2-11.8 12 0 6.1 3.5 10.9 9.6 11.8zM102.9 27c3.7 0 5.2 3.3 5.2 4.5H97a5.9 5.9 0 0 1 6-4.5M122.9 71.5c-1 .3-2 .6-3.5.6-3 0-5.8-2.2-5.9-5.6h17c0-8.2-3.4-13.3-11-13.3-7.5 0-11.8 5.2-11.8 12 0 6.1 3.5 11 9.6 11.8zm-3.5-13.8c3.7 0 5.2 3.3 5.2 4.6h-11a5.9 5.9 0 0 1 5.8-4.6M46 41.9c0 2.3.6 3.3.9 3.8H41c-.3-.5-.5-1.5-.5-2a11.5 11.5 0 0 1-7.5 2.6c-4.3 0-7.7-2.8-7.7-7.2 0-4.5 3.5-6.5 7-7.2l2.2-.4c2-.4 4.6-.9 6-1.4v-.6c0-2.3-2-3-4.3-3-3.3 0-4.3 1-4.3 3.5l-5.5-.2c0-5.4 4.7-7.5 9.8-7.5 4.9 0 9.8 1 9.8 7.5zm-5.5-7.6c-.7.4-1.6.6-2.6.8l-3 .6c-2.1.5-3.9 1-3.9 3.2 0 1.7 1.6 2.9 3.6 2.9 2.6 0 5.9-1.3 5.9-4.2v-3.3M46.1 72.7c0 2.4.6 3.4.9 3.9H41c-.3-.6-.5-1.5-.5-2.1a11.5 11.5 0 0 1-7.5 2.6c-4.3 0-7.7-2.8-7.7-7.2 0-4.5 3.5-6.5 7-7.1l2.2-.5c2-.4 4.6-.8 6-1.3v-.7c0-2.3-2-3-4.3-3-3.3 0-4.3 1-4.3 3.5l-5.5-.2c0-5.4 4.7-7.5 9.8-7.5 4.9 0 9.8 1 9.8 7.5zm-5.5-7.6c-.7.4-1.6.6-2.6.8l-3 .7c-2.1.4-3.9 1-3.9 3.1 0 1.7 1.6 2.9 3.6 2.9 2.6 0 5.9-1.3 5.9-4.2V65M48.5 53.8h5.8L59 69.6l4.7-15.8h5.8l-7.6 22.8H56l-7.5-22.8M71.7 45.8h-5.5v-2.2H66c-1.2 1.5-3.5 2.8-6.6 2.8-3.9 0-8.3-1.7-8.3-8.3V22.9h5.5v13.6c0 3.2 1.2 4.5 4 4.5 4.2 0 5.5-3 5.5-5.8V23h5.5v23M103.6 72.4V60.3h-5.5v17.6l5.5-5.5M79.3 41c0 2.3.6 3.9 2.1 4.8l4.3-4.3c-.7-.4-.9-1.3-.9-2.5V27.4h5v-4h-5V11.6l-5.5 5.6v6.4h-3.4v4h3.4V41M131.8 10.3H122V.6h9.7v9.7M149 10.3h-9.6V.6h9.7v9.7M131.8 27.6H122v-9.7h9.7v9.7M149 27.6h-9.6v-9.7h9.7v9.7M103.6 51h-5.5v5.6h5.5V51M3.2 83.4v13H.9v-13h2.3M11.8 90.6c-.2-1.4-1.1-2-2.1-2-1.2 0-2 .8-2.2 2zm2.5 3.7a5.4 5.4 0 0 1-4.5 2.4c-2.4 0-4.7-1.6-4.7-5 0-3 2-4.8 4.5-4.8s3.5 1.5 3.7 1.7c.7 1.1.9 2.7.9 3.6H7.4c.2 1.5 1.1 2.3 2.6 2.3s2.1-.9 2.4-1.3l1.9 1.1M23.7 85.6v8.6h1c1.8 0 2.5-.1 3-.3 1-.4 2-1.2 2-3.9 0-1.2-.2-3.2-2-4-.7-.4-1.1-.4-2.7-.4zm-2.5-2.2H26c1.1 0 2.5 0 3.8 1 2.2 1.5 2.5 4.2 2.5 5.6 0 2.2-.7 4.5-2.6 5.6a8 8 0 0 1-4.2.8h-4.2v-13M41 83.4l-2 2.4h-1.7l.9-2.4zm-.6 7.2c-.2-1.4-1.1-2-2-2-1.3 0-2 .8-2.3 2zm2.5 3.7a5.3 5.3 0 0 1-4.5 2.4c-2.4 0-4.7-1.6-4.7-5 0-3 2-4.8 4.5-4.8s3.5 1.5 3.7 1.7c.7 1.1.9 2.7 1 3.6H36c.3 1.5 1.2 2.3 2.6 2.3 1.5 0 2.1-.9 2.4-1.3l1.9 1.1M49 94.6c1.1 0 2.3-.8 2.3-2.8 0-2.3-1.6-2.8-2.3-2.8-1 0-2.1.8-2.2 2.7 0 2 1 2.9 2.3 2.9zm-4.3-7.4h2.2v.8c.3-.3 1-1 2.5-1 2.7 0 4.1 2.3 4.1 4.9 0 2.7-1.7 4.8-4.1 4.8-1.3 0-2-.6-2.5-1v3.7h-2.2V87.2M60.9 91.8l-2 .6c-.7 0-1.8.3-1.8 1.2 0 .7.6 1.1 1.5 1.1 1.1 0 1.9-.5 2.1-1 .2-.3.2-.6.2-.9zm-5.7-2c0-.4 0-.8.4-1.3.8-1.6 3-1.6 3.6-1.6.9 0 2 .1 2.8.6 1 .7 1 1.5 1 2.5V95c0 .7 0 1 .5 1.5h-2.6v-.7c-.6.4-1.5.9-2.8.9-2 0-3.3-1.3-3.3-2.9 0-.4 0-.8.3-1.2.6-1.3 2-1.6 3-1.8l2.8-.7c0-.4 0-1.4-1.6-1.4-1 0-1.4.3-1.6.6-.3.3-.2.6-.2.8l-2.3-.1M67.2 87.2v1.3c.3-.5.9-1.6 3-1.5v2.2c-.6 0-1.4 0-2 .6-1 .7-1 1.7-1 3.2v3.4H65v-9.2h2.2M74.8 88.8v4.1c0 1.2 0 1.7 1 1.7l1-.1v1.8a9 9 0 0 1-1.6.2c-.5 0-2 0-2.4-1.2-.2-.3-.2-1-.2-1.8v-4.7h-1.3v-1.6h1.3v-3.3h2.2v3.3h2v1.6h-2M84.7 90.6c-.2-1.4-1.1-2-2-2-1.2 0-2 .8-2.3 2zm2.5 3.7a5.3 5.3 0 0 1-4.5 2.4c-2.4 0-4.7-1.6-4.7-5 0-3 2-4.8 4.6-4.8 2.4 0 3.4 1.5 3.6 1.7.7 1.1.9 2.7 1 3.6h-6.9c.3 1.5 1.2 2.3 2.6 2.3 1.5 0 2.1-.9 2.4-1.3l1.9 1.1M89 87.2H91v1a4 4 0 0 1 3-1.3c.8 0 1.9.3 2.5 1.4.4-.5 1.3-1.4 3-1.4.9 0 1.7.3 2.4 1 .7.8.7 1.7.7 2.7v5.8h-2.2v-5c0-1 .1-2.4-1.5-2.4-.7 0-1.3.4-1.6.9a4 4 0 0 0-.5 2.2v4.3h-2.2V90c-.2-.6-.7-1.1-1.5-1.1a2 2 0 0 0-1.6 1c-.4.8-.5 1.6-.5 2.5v3.9H89v-9.2M111.3 90.6c-.2-1.4-1-2-2-2-1.2 0-2 .8-2.3 2zm2.5 3.7a5.3 5.3 0 0 1-4.5 2.4c-2.4 0-4.7-1.6-4.7-5 0-3 2-4.8 4.6-4.8 2.4 0 3.4 1.5 3.6 1.7.7 1.1 1 2.7 1 3.6h-6.9c.3 1.5 1.2 2.3 2.6 2.3 1.5 0 2.2-.9 2.4-1.3l1.9 1.1M115.6 87.2h2.2v1s.3-.4.7-.6c.5-.4 1.4-.7 2.1-.7 1 0 2 .5 2.4 1.1.6.8.6 1.8.6 3v5.4h-2.2v-6.1c-.3-.8-.9-1.2-1.6-1.2a2 2 0 0 0-1.7 1c-.3.7-.3 1.6-.3 2.3v4h-2.2v-9.2M128.4 88.8v4.1c0 1.2 0 1.7 1 1.7l1-.1v1.8a9 9 0 0 1-1.6.2c-.4 0-2 0-2.4-1.2-.2-.3-.2-1-.2-1.8v-4.7H125v-1.6h1.3v-3.3h2.2v3.3h2v1.6h-2" style="fill:#ed1c24;fill-opacity:1;fill-rule:nonzero;stroke:none;stroke-width:.0580649"/>
</svg>