<svg xmlns="http://www.w3.org/2000/svg" width="294" height="100">
  <defs>
    <linearGradient id="a" x1="0" x2="1" y1="0" y2="0" gradientTransform="scale(-630.4 630.4) rotate(-65.5 .5 1.8)" gradientUnits="userSpaceOnUse" spreadMethod="pad">
      <stop offset="0" style="stop-opacity:1;stop-color:#fabb0d"/>
      <stop offset="1" style="stop-opacity:1;stop-color:#f68512"/>
    </linearGradient>
    <linearGradient id="b" x1="0" x2="1" y1="0" y2="0" gradientTransform="scale(-1211 1211) rotate(61.7 -.3 -.4)" gradientUnits="userSpaceOnUse" spreadMethod="pad">
      <stop offset="0" style="stop-opacity:1;stop-color:#fabb0d"/>
      <stop offset="1" style="stop-opacity:1;stop-color:#f68512"/>
    </linearGradient>
    <linearGradient id="c" x1="0" x2="1" y1="0" y2="0" gradientTransform="matrix(1774.3 0 0 -1774.3 1107.2 612.3)" gradientUnits="userSpaceOnUse" spreadMethod="pad">
      <stop offset="0" style="stop-opacity:1;stop-color:#fabb0d"/>
      <stop offset="1" style="stop-opacity:1;stop-color:#f68512"/>
    </linearGradient>
    <clipPath id="d" clipPathUnits="userSpaceOnUse">
      <path d="M2881.4 599.6H1107.2V625h1774.2z"/>
    </clipPath>
  </defs>
  <path d="m1196.5 763.9 52 130h60.4l-91.4-214.1h-43.2l-90 214.1h60.5l51.7-130M1370 915.5l-23 16.8 40 48.8 31.5-22.7zm8.5-68.7V811h62.7V764h-62.7v-37h66.2v-47.1h-121.9v214.1h121.8v-47.1h-66.1M1534.6 798h5.4c18.2 0 38.7 3.3 38.7 26.6s-20.5 26.7-38.7 26.7h-5.4zM1657 679.7h-69.3l-52.5 82.3h-.6v-82.3H1479v214.1h83.2c42.3 0 74.4-20.1 74.4-65.9 0-29.5-16.5-55-46.9-60.5l67.3-87.7" style="fill:#231f20;fill-opacity:1;fill-rule:nonzero;stroke:none" transform="matrix(.1 0 0 -.1 .8 99.3)"/>
  <path d="M1765.5 827.8h-.6l-23-68.2h46.3zm-39-110.8-14.7-37.2h-59l82.3 214.1h60.8l80.7-214.1h-59.4l-14 37.2h-76.6M1893.8 894h55.7l102-131h.5v131h55.7V679.7H2052L1950 811h-.5V679.8h-55.7v214.1M1122.8 325.3H1110v200.1h12.8V325.3M1357 318.6l-168.1 178.7v-172h-12.7V528l168-177.4v174.7h12.7V318.6M1503 492.5a45.7 45.7 0 0 1-40.6 23.6 37.6 37.6 0 0 1-37.7-38.2c0-21 19.9-29.7 36-37.4l38.3-20a43.7 43.7 0 0 0 22.8-39.8c0-33.1-30.2-58.1-62.6-58.1a61.8 61.8 0 0 0-59 43l11.2 5c8.5-21.2 24.2-36 48.3-36a48.7 48.7 0 0 1 49.4 47.2c0 22.6-23.1 32.1-40.4 40.6l-36 19.1a40 40 0 0 0-20.8 35.9 49 49 0 0 0 51.2 50.7 56 56 0 0 0 48.9-28.2l-9-7.4M1609.7 325.3H1597v188.2h-51.8v12h116.3v-12h-51.8V325.3M1723.9 432c12.5 0 25 .5 35 9.3a40 40 0 0 1 14.1 31.6c0 14.8-6.9 29.7-21.2 36-10.6 5-24.2 4.6-35.9 4.6h-8.2V432zm70-106.7h-14.5L1714 420h-6.4v-94.7H1695v200.1h25c16.1 0 32-.3 45.6-10 14.3-10.2 20.2-26 20.2-43 0-34.9-24.2-53-57.4-52.4l65.6-94.7M1956.2 525.4h12.8V400.6c0-20.4 0-38-13.6-54.6a72.8 72.8 0 0 0-54.4-23.4c-20.2 0-40.9 8-54.4 23.4-13.6 16.7-13.6 34.2-13.6 54.6v124.8h12.8v-121c0-18 0-37.2 10.3-50.5 9.8-12.7 29.5-19.4 44.9-19.4 15.4 0 35 6.7 44.9 19.4 10.3 13.3 10.3 32.4 10.3 50.5v121M2188.3 490.9h-.6L2118 318.6 2048.4 491h-.6l-34.2-165.6h-12.2l43 206.7 73.5-182 73.8 182 43-206.7h-12.2l-34.2 165.6M2281.7 513.5v-72.8h80.7v-12h-80.7v-91.5h82.9v-12H2269v200.2h95.6v-12h-82.9M2594.8 318.6l-168 178.7v-172H2414V528l168-177.4v174.7h12.8V318.6M2692.7 325.3H2680v188.2h-51.8v12h116.3v-12h-51.8V325.3M2870.6 492.5A45.7 45.7 0 0 1 2830 516a37.6 37.6 0 0 1-37.7-38.2c0-21 20-29.7 36.1-37.4l38.3-20a43.7 43.7 0 0 0 22.8-39.8c0-33.1-30.3-58.1-62.7-58.1a61.8 61.8 0 0 0-59 43l11.2 5c8.5-21.2 24.2-36 48.4-36a48.7 48.7 0 0 1 49.3 47.2c0 22.6-23 32.1-40.3 40.6l-36.1 19.1a40 40 0 0 0-20.7 35.9 49 49 0 0 0 51.2 50.7 56.1 56.1 0 0 0 48.9-28.2l-9-7.4M1168.2 273.7l26.8-39-10.1-4.5-33 38.5zm5.6-92.7-39.3-96.6h78.3zm-44.1-108.5-26.8-65.9h-13l83.8 206.8 83.7-206.8h-13l-26.8 65.9h-88M1435.3 35.9h.5l59.2 170.9h12.7L1435 0l-72 206.8h12.8l59.5-171M1553.7 194.9V122h80.7v-12h-80.7V18.7h82.8v-12H1541v200.2h95.5v-12h-82.8M1866.7 0l-168 178.7V6.7h-12.8v202.8L1854 32v174.7h12.8V0M1964.7 6.6h-12.8V195h-51.7v11.9h116.3v-12h-51.8V6.7" style="fill:#231f20;fill-opacity:1;fill-rule:nonzero;stroke:none" transform="matrix(.1 0 0 -.1 .8 99.3)"/>
  <path d="M683 316.5c21.6-52.3 54.5-74.6 84-9.8l251.3 589H651.5L546 646l137-329.4" style="fill:url(#a);fill-opacity:1;fill-rule:evenodd;stroke:none" transform="matrix(.1 0 0 -.1 .8 99.3)"/>
  <path d="M0 895.7 277.9 244c17.8-35.3 41.6-65 84.8-65h351c-23.7 4-52.3 18.3-78.3 79.6L364.5 895.7H0" style="fill:url(#b);fill-opacity:1;fill-rule:evenodd;stroke:none" transform="matrix(.1 0 0 -.1 .8 99.3)"/>
  <path d="M2881.4 599.6H1107.2V625h1774.2v-25.3" clip-path="url(#d)" style="fill:url(#c);fill-opacity:1;fill-rule:nonzero;stroke:none" transform="matrix(.1 0 0 -.1 .8 99.3)"/>
</svg>